G04 #@! TF.FileFunction,Soldermask,Bot*
%FSLAX46Y46*%
G04 Gerber Fmt 4.6, Leading zero omitted, Abs format (unit mm)*
G04 Created by KiCad (PCBNEW (2015-06-16 BZR 5762, Git d3b3131)-product) date 2015.07.11. 4:53:42*
%MOMM*%
G01*
G04 APERTURE LIST*
%ADD10C,0.100000*%
%ADD11C,5.001260*%
%ADD12C,1.700000*%
%ADD13R,2.300000X3.000000*%
%ADD14R,1.727200X1.727200*%
%ADD15O,1.727200X1.727200*%
%ADD16R,1.727200X2.032000*%
%ADD17O,1.727200X2.032000*%
%ADD18R,2.032000X1.727200*%
%ADD19O,2.032000X1.727200*%
%ADD20R,1.700000X1.700000*%
%ADD21C,5.000000*%
G04 APERTURE END LIST*
D10*
D11*
X147000000Y-77000000D03*
D12*
X141000000Y-62500000D03*
X138500000Y-62500000D03*
X143500000Y-62500000D03*
X138500000Y-48000000D03*
X143500000Y-48000000D03*
D13*
X136400000Y-55000000D03*
X145600000Y-55000000D03*
D14*
X43180000Y-33655000D03*
D15*
X43180000Y-36195000D03*
X45720000Y-33655000D03*
X45720000Y-36195000D03*
X48260000Y-33655000D03*
X48260000Y-36195000D03*
X50800000Y-33655000D03*
X50800000Y-36195000D03*
X53340000Y-33655000D03*
X53340000Y-36195000D03*
X55880000Y-33655000D03*
X55880000Y-36195000D03*
X58420000Y-33655000D03*
X58420000Y-36195000D03*
X60960000Y-33655000D03*
X60960000Y-36195000D03*
D12*
X71755000Y-33655000D03*
X74295000Y-33655000D03*
X69215000Y-33655000D03*
X90170000Y-76200000D03*
X87630000Y-76200000D03*
X92710000Y-76200000D03*
D16*
X93345000Y-66675000D03*
D17*
X95885000Y-66675000D03*
X98425000Y-66675000D03*
X100965000Y-66675000D03*
X103505000Y-66675000D03*
D12*
X83820000Y-76200000D03*
X81280000Y-76200000D03*
D16*
X55880000Y-41910000D03*
D17*
X58420000Y-41910000D03*
X60960000Y-41910000D03*
D18*
X121920000Y-36195000D03*
D19*
X121920000Y-38735000D03*
X121920000Y-41275000D03*
X121920000Y-43815000D03*
D12*
X80645000Y-33655000D03*
X83185000Y-33655000D03*
X78105000Y-33655000D03*
D14*
X60960000Y-76200000D03*
D15*
X60960000Y-73660000D03*
X58420000Y-76200000D03*
X58420000Y-73660000D03*
X55880000Y-76200000D03*
X55880000Y-73660000D03*
X53340000Y-76200000D03*
X53340000Y-73660000D03*
X50800000Y-76200000D03*
X50800000Y-73660000D03*
X48260000Y-76200000D03*
X48260000Y-73660000D03*
X45720000Y-76200000D03*
X45720000Y-73660000D03*
X43180000Y-76200000D03*
X43180000Y-73660000D03*
D14*
X53975000Y-59055000D03*
D15*
X56515000Y-59055000D03*
X53975000Y-56515000D03*
X56515000Y-56515000D03*
X53975000Y-53975000D03*
X56515000Y-53975000D03*
X53975000Y-51435000D03*
X56515000Y-51435000D03*
X53975000Y-48895000D03*
X56515000Y-48895000D03*
D12*
X74930000Y-76200000D03*
X72390000Y-76200000D03*
X77470000Y-76200000D03*
D16*
X72390000Y-69850000D03*
D17*
X74930000Y-69850000D03*
X77470000Y-69850000D03*
D12*
X89535000Y-33655000D03*
X92075000Y-33655000D03*
X86995000Y-33655000D03*
D20*
X39052500Y-58737500D03*
D12*
X41592500Y-58737500D03*
D20*
X39052500Y-56197500D03*
D12*
X41592500Y-56197500D03*
D20*
X39052500Y-53657500D03*
D12*
X41592500Y-53657500D03*
D20*
X39052500Y-51117500D03*
D12*
X41592500Y-51117500D03*
D18*
X120650000Y-61595000D03*
D19*
X120650000Y-59055000D03*
X120650000Y-56515000D03*
D21*
X33000000Y-77000000D03*
X33000000Y-33000000D03*
X109080000Y-33000000D03*
X109080000Y-77000000D03*
D12*
X114000000Y-71510000D03*
X114000000Y-68970000D03*
X114000000Y-66430000D03*
X114000000Y-63890000D03*
X114000000Y-61350000D03*
X114000000Y-58810000D03*
X114000000Y-56270000D03*
X114000000Y-53730000D03*
X114000000Y-51190000D03*
X114000000Y-48650000D03*
X114000000Y-46110000D03*
X114000000Y-43570000D03*
X114000000Y-41030000D03*
X114000000Y-38490000D03*
X32720000Y-56270000D03*
X32720000Y-58810000D03*
X32720000Y-53730000D03*
X32720000Y-51190000D03*
D11*
X147000000Y-33000000D03*
M02*
