G04 #@! TF.FileFunction,Legend,Bot*
%FSLAX46Y46*%
G04 Gerber Fmt 4.6, Leading zero omitted, Abs format (unit mm)*
G04 Created by KiCad (PCBNEW (2015-06-16 BZR 5762, Git d3b3131)-product) date 2015.07.11. 4:53:42*
%MOMM*%
G01*
G04 APERTURE LIST*
%ADD10C,0.100000*%
%ADD11C,0.200000*%
%ADD12C,0.150000*%
G04 APERTURE END LIST*
D10*
D11*
X137571428Y-70235714D02*
X137642857Y-70307143D01*
X137857143Y-70378571D01*
X138000000Y-70378571D01*
X138214285Y-70307143D01*
X138357143Y-70164286D01*
X138428571Y-70021429D01*
X138500000Y-69735714D01*
X138500000Y-69521429D01*
X138428571Y-69235714D01*
X138357143Y-69092857D01*
X138214285Y-68950000D01*
X138000000Y-68878571D01*
X137857143Y-68878571D01*
X137642857Y-68950000D01*
X137571428Y-69021429D01*
X136928571Y-70378571D02*
X136928571Y-68878571D01*
X136071428Y-70378571D01*
X136071428Y-68878571D01*
X134499999Y-70235714D02*
X134571428Y-70307143D01*
X134785714Y-70378571D01*
X134928571Y-70378571D01*
X135142856Y-70307143D01*
X135285714Y-70164286D01*
X135357142Y-70021429D01*
X135428571Y-69735714D01*
X135428571Y-69521429D01*
X135357142Y-69235714D01*
X135285714Y-69092857D01*
X135142856Y-68950000D01*
X134928571Y-68878571D01*
X134785714Y-68878571D01*
X134571428Y-68950000D01*
X134499999Y-69021429D01*
X132714285Y-70378571D02*
X132714285Y-68878571D01*
X132214285Y-69950000D01*
X131714285Y-68878571D01*
X131714285Y-70378571D01*
X130785713Y-70378571D02*
X130928571Y-70307143D01*
X130999999Y-70235714D01*
X131071428Y-70092857D01*
X131071428Y-69664286D01*
X130999999Y-69521429D01*
X130928571Y-69450000D01*
X130785713Y-69378571D01*
X130571428Y-69378571D01*
X130428571Y-69450000D01*
X130357142Y-69521429D01*
X130285713Y-69664286D01*
X130285713Y-70092857D01*
X130357142Y-70235714D01*
X130428571Y-70307143D01*
X130571428Y-70378571D01*
X130785713Y-70378571D01*
X129857142Y-69378571D02*
X129285713Y-69378571D01*
X129642856Y-68878571D02*
X129642856Y-70164286D01*
X129571428Y-70307143D01*
X129428570Y-70378571D01*
X129285713Y-70378571D01*
X128571427Y-70378571D02*
X128714285Y-70307143D01*
X128785713Y-70235714D01*
X128857142Y-70092857D01*
X128857142Y-69664286D01*
X128785713Y-69521429D01*
X128714285Y-69450000D01*
X128571427Y-69378571D01*
X128357142Y-69378571D01*
X128214285Y-69450000D01*
X128142856Y-69521429D01*
X128071427Y-69664286D01*
X128071427Y-70092857D01*
X128142856Y-70235714D01*
X128214285Y-70307143D01*
X128357142Y-70378571D01*
X128571427Y-70378571D01*
X127428570Y-70378571D02*
X127428570Y-69378571D01*
X127428570Y-69664286D02*
X127357142Y-69521429D01*
X127285713Y-69450000D01*
X127142856Y-69378571D01*
X126999999Y-69378571D01*
X125357142Y-70378571D02*
X125357142Y-68878571D01*
X124999999Y-68878571D01*
X124785714Y-68950000D01*
X124642856Y-69092857D01*
X124571428Y-69235714D01*
X124499999Y-69521429D01*
X124499999Y-69735714D01*
X124571428Y-70021429D01*
X124642856Y-70164286D01*
X124785714Y-70307143D01*
X124999999Y-70378571D01*
X125357142Y-70378571D01*
X123857142Y-70378571D02*
X123857142Y-69378571D01*
X123857142Y-69664286D02*
X123785714Y-69521429D01*
X123714285Y-69450000D01*
X123571428Y-69378571D01*
X123428571Y-69378571D01*
X122928571Y-70378571D02*
X122928571Y-69378571D01*
X122928571Y-68878571D02*
X123000000Y-68950000D01*
X122928571Y-69021429D01*
X122857143Y-68950000D01*
X122928571Y-68878571D01*
X122928571Y-69021429D01*
X122357142Y-69378571D02*
X121999999Y-70378571D01*
X121642857Y-69378571D01*
X120500000Y-70307143D02*
X120642857Y-70378571D01*
X120928571Y-70378571D01*
X121071428Y-70307143D01*
X121142857Y-70164286D01*
X121142857Y-69592857D01*
X121071428Y-69450000D01*
X120928571Y-69378571D01*
X120642857Y-69378571D01*
X120500000Y-69450000D01*
X120428571Y-69592857D01*
X120428571Y-69735714D01*
X121142857Y-69878571D01*
X119785714Y-70378571D02*
X119785714Y-69378571D01*
X119785714Y-69664286D02*
X119714286Y-69521429D01*
X119642857Y-69450000D01*
X119500000Y-69378571D01*
X119357143Y-69378571D01*
X138392856Y-71892857D02*
X138892856Y-71892857D01*
X138892856Y-72678571D02*
X138892856Y-71178571D01*
X138178570Y-71178571D01*
X137607142Y-72678571D02*
X137607142Y-71678571D01*
X137607142Y-71964286D02*
X137535714Y-71821429D01*
X137464285Y-71750000D01*
X137321428Y-71678571D01*
X137178571Y-71678571D01*
X136464285Y-72678571D02*
X136607143Y-72607143D01*
X136678571Y-72535714D01*
X136750000Y-72392857D01*
X136750000Y-71964286D01*
X136678571Y-71821429D01*
X136607143Y-71750000D01*
X136464285Y-71678571D01*
X136250000Y-71678571D01*
X136107143Y-71750000D01*
X136035714Y-71821429D01*
X135964285Y-71964286D01*
X135964285Y-72392857D01*
X136035714Y-72535714D01*
X136107143Y-72607143D01*
X136250000Y-72678571D01*
X136464285Y-72678571D01*
X135321428Y-71678571D02*
X135321428Y-72678571D01*
X135321428Y-71821429D02*
X135250000Y-71750000D01*
X135107142Y-71678571D01*
X134892857Y-71678571D01*
X134750000Y-71750000D01*
X134678571Y-71892857D01*
X134678571Y-72678571D01*
X134178571Y-71678571D02*
X133607142Y-71678571D01*
X133964285Y-71178571D02*
X133964285Y-72464286D01*
X133892857Y-72607143D01*
X133749999Y-72678571D01*
X133607142Y-72678571D01*
X131964285Y-72678571D02*
X131964285Y-71178571D01*
X131392857Y-71178571D01*
X131249999Y-71250000D01*
X131178571Y-71321429D01*
X131107142Y-71464286D01*
X131107142Y-71678571D01*
X131178571Y-71821429D01*
X131249999Y-71892857D01*
X131392857Y-71964286D01*
X131964285Y-71964286D01*
X129821428Y-72678571D02*
X129821428Y-71892857D01*
X129892857Y-71750000D01*
X130035714Y-71678571D01*
X130321428Y-71678571D01*
X130464285Y-71750000D01*
X129821428Y-72607143D02*
X129964285Y-72678571D01*
X130321428Y-72678571D01*
X130464285Y-72607143D01*
X130535714Y-72464286D01*
X130535714Y-72321429D01*
X130464285Y-72178571D01*
X130321428Y-72107143D01*
X129964285Y-72107143D01*
X129821428Y-72035714D01*
X129107142Y-71678571D02*
X129107142Y-72678571D01*
X129107142Y-71821429D02*
X129035714Y-71750000D01*
X128892856Y-71678571D01*
X128678571Y-71678571D01*
X128535714Y-71750000D01*
X128464285Y-71892857D01*
X128464285Y-72678571D01*
X127178571Y-72607143D02*
X127321428Y-72678571D01*
X127607142Y-72678571D01*
X127749999Y-72607143D01*
X127821428Y-72464286D01*
X127821428Y-71892857D01*
X127749999Y-71750000D01*
X127607142Y-71678571D01*
X127321428Y-71678571D01*
X127178571Y-71750000D01*
X127107142Y-71892857D01*
X127107142Y-72035714D01*
X127821428Y-72178571D01*
X126249999Y-72678571D02*
X126392857Y-72607143D01*
X126464285Y-72464286D01*
X126464285Y-71178571D01*
X124678571Y-71678571D02*
X124321428Y-72678571D01*
X123964286Y-71678571D01*
X122607143Y-72678571D02*
X123464286Y-72678571D01*
X123035714Y-72678571D02*
X123035714Y-71178571D01*
X123178571Y-71392857D01*
X123321429Y-71535714D01*
X123464286Y-71607143D01*
X121964286Y-72535714D02*
X121892858Y-72607143D01*
X121964286Y-72678571D01*
X122035715Y-72607143D01*
X121964286Y-72535714D01*
X121964286Y-72678571D01*
X120964286Y-71178571D02*
X120821429Y-71178571D01*
X120678572Y-71250000D01*
X120607143Y-71321429D01*
X120535714Y-71464286D01*
X120464286Y-71750000D01*
X120464286Y-72107143D01*
X120535714Y-72392857D01*
X120607143Y-72535714D01*
X120678572Y-72607143D01*
X120821429Y-72678571D01*
X120964286Y-72678571D01*
X121107143Y-72607143D01*
X121178572Y-72535714D01*
X121250000Y-72392857D01*
X121321429Y-72107143D01*
X121321429Y-71750000D01*
X121250000Y-71464286D01*
X121178572Y-71321429D01*
X121107143Y-71250000D01*
X120964286Y-71178571D01*
X119035715Y-72678571D02*
X119892858Y-72678571D01*
X119464286Y-72678571D02*
X119464286Y-71178571D01*
X119607143Y-71392857D01*
X119750001Y-71535714D01*
X119892858Y-71607143D01*
X138214285Y-74978571D02*
X138214285Y-73478571D01*
X137857142Y-73478571D01*
X137642857Y-73550000D01*
X137499999Y-73692857D01*
X137428571Y-73835714D01*
X137357142Y-74121429D01*
X137357142Y-74335714D01*
X137428571Y-74621429D01*
X137499999Y-74764286D01*
X137642857Y-74907143D01*
X137857142Y-74978571D01*
X138214285Y-74978571D01*
X136142857Y-74907143D02*
X136285714Y-74978571D01*
X136571428Y-74978571D01*
X136714285Y-74907143D01*
X136785714Y-74764286D01*
X136785714Y-74192857D01*
X136714285Y-74050000D01*
X136571428Y-73978571D01*
X136285714Y-73978571D01*
X136142857Y-74050000D01*
X136071428Y-74192857D01*
X136071428Y-74335714D01*
X136785714Y-74478571D01*
X135500000Y-74907143D02*
X135357143Y-74978571D01*
X135071428Y-74978571D01*
X134928571Y-74907143D01*
X134857143Y-74764286D01*
X134857143Y-74692857D01*
X134928571Y-74550000D01*
X135071428Y-74478571D01*
X135285714Y-74478571D01*
X135428571Y-74407143D01*
X135500000Y-74264286D01*
X135500000Y-74192857D01*
X135428571Y-74050000D01*
X135285714Y-73978571D01*
X135071428Y-73978571D01*
X134928571Y-74050000D01*
X134214285Y-74978571D02*
X134214285Y-73978571D01*
X134214285Y-73478571D02*
X134285714Y-73550000D01*
X134214285Y-73621429D01*
X134142857Y-73550000D01*
X134214285Y-73478571D01*
X134214285Y-73621429D01*
X132857142Y-73978571D02*
X132857142Y-75192857D01*
X132928571Y-75335714D01*
X132999999Y-75407143D01*
X133142856Y-75478571D01*
X133357142Y-75478571D01*
X133499999Y-75407143D01*
X132857142Y-74907143D02*
X132999999Y-74978571D01*
X133285713Y-74978571D01*
X133428571Y-74907143D01*
X133499999Y-74835714D01*
X133571428Y-74692857D01*
X133571428Y-74264286D01*
X133499999Y-74121429D01*
X133428571Y-74050000D01*
X133285713Y-73978571D01*
X132999999Y-73978571D01*
X132857142Y-74050000D01*
X132142856Y-73978571D02*
X132142856Y-74978571D01*
X132142856Y-74121429D02*
X132071428Y-74050000D01*
X131928570Y-73978571D01*
X131714285Y-73978571D01*
X131571428Y-74050000D01*
X131499999Y-74192857D01*
X131499999Y-74978571D01*
X130214285Y-74907143D02*
X130357142Y-74978571D01*
X130642856Y-74978571D01*
X130785713Y-74907143D01*
X130857142Y-74764286D01*
X130857142Y-74192857D01*
X130785713Y-74050000D01*
X130642856Y-73978571D01*
X130357142Y-73978571D01*
X130214285Y-74050000D01*
X130142856Y-74192857D01*
X130142856Y-74335714D01*
X130857142Y-74478571D01*
X128857142Y-74978571D02*
X128857142Y-73478571D01*
X128857142Y-74907143D02*
X128999999Y-74978571D01*
X129285713Y-74978571D01*
X129428571Y-74907143D01*
X129499999Y-74835714D01*
X129571428Y-74692857D01*
X129571428Y-74264286D01*
X129499999Y-74121429D01*
X129428571Y-74050000D01*
X129285713Y-73978571D01*
X128999999Y-73978571D01*
X128857142Y-74050000D01*
X126999999Y-74978571D02*
X126999999Y-73478571D01*
X126999999Y-74050000D02*
X126857142Y-73978571D01*
X126571428Y-73978571D01*
X126428571Y-74050000D01*
X126357142Y-74121429D01*
X126285713Y-74264286D01*
X126285713Y-74692857D01*
X126357142Y-74835714D01*
X126428571Y-74907143D01*
X126571428Y-74978571D01*
X126857142Y-74978571D01*
X126999999Y-74907143D01*
X125785713Y-73978571D02*
X125428570Y-74978571D01*
X125071428Y-73978571D02*
X125428570Y-74978571D01*
X125571428Y-75335714D01*
X125642856Y-75407143D01*
X125785713Y-75478571D01*
X123428571Y-74907143D02*
X123214285Y-74978571D01*
X122857142Y-74978571D01*
X122714285Y-74907143D01*
X122642856Y-74835714D01*
X122571428Y-74692857D01*
X122571428Y-74550000D01*
X122642856Y-74407143D01*
X122714285Y-74335714D01*
X122857142Y-74264286D01*
X123142856Y-74192857D01*
X123285714Y-74121429D01*
X123357142Y-74050000D01*
X123428571Y-73907143D01*
X123428571Y-73764286D01*
X123357142Y-73621429D01*
X123285714Y-73550000D01*
X123142856Y-73478571D01*
X122785714Y-73478571D01*
X122571428Y-73550000D01*
X121928571Y-73478571D02*
X121928571Y-74692857D01*
X121857143Y-74835714D01*
X121785714Y-74907143D01*
X121642857Y-74978571D01*
X121357143Y-74978571D01*
X121214285Y-74907143D01*
X121142857Y-74835714D01*
X121071428Y-74692857D01*
X121071428Y-73478571D01*
X119857142Y-74192857D02*
X120357142Y-74192857D01*
X120357142Y-74978571D02*
X120357142Y-73478571D01*
X119642856Y-73478571D01*
X150000000Y-30000000D02*
X120000000Y-30000000D01*
X150000000Y-50000000D02*
X150000000Y-30000000D01*
X120000000Y-50000000D02*
X150000000Y-50000000D01*
X120000000Y-30000000D02*
X120000000Y-50000000D01*
D12*
X62230000Y-37465000D02*
X41910000Y-37465000D01*
X44450000Y-32385000D02*
X62230000Y-32385000D01*
X62230000Y-37465000D02*
X62230000Y-32385000D01*
X41910000Y-37465000D02*
X41910000Y-34925000D01*
X41630000Y-33655000D02*
X41630000Y-32105000D01*
X41910000Y-34925000D02*
X44450000Y-34925000D01*
X44450000Y-34925000D02*
X44450000Y-32385000D01*
X41630000Y-32105000D02*
X43180000Y-32105000D01*
X74255000Y-35655000D02*
X69255000Y-35655000D01*
X74255000Y-36255000D02*
X74255000Y-35655000D01*
X69255000Y-36255000D02*
X69255000Y-35655000D01*
X75605000Y-36255000D02*
X75605000Y-30455000D01*
X67905000Y-36255000D02*
X75605000Y-36255000D01*
X67905000Y-30455000D02*
X67905000Y-36255000D01*
X67905000Y-30455000D02*
X75605000Y-30455000D01*
X87670000Y-74200000D02*
X92670000Y-74200000D01*
X87670000Y-73600000D02*
X87670000Y-74200000D01*
X92670000Y-73600000D02*
X92670000Y-74200000D01*
X86320000Y-73600000D02*
X86320000Y-79400000D01*
X94020000Y-73600000D02*
X86320000Y-73600000D01*
X94020000Y-79400000D02*
X94020000Y-73600000D01*
X94020000Y-79400000D02*
X86320000Y-79400000D01*
X93345000Y-65125000D02*
X91795000Y-65125000D01*
X91795000Y-65125000D02*
X91795000Y-68225000D01*
X91795000Y-68225000D02*
X93345000Y-68225000D01*
X94615000Y-67945000D02*
X104775000Y-67945000D01*
X104775000Y-67945000D02*
X104775000Y-65405000D01*
X104775000Y-65405000D02*
X94615000Y-65405000D01*
X94615000Y-67945000D02*
X94615000Y-65405000D01*
X83800000Y-73600000D02*
X83800000Y-74200000D01*
X83800000Y-74200000D02*
X81300000Y-74200000D01*
X81300000Y-74200000D02*
X81300000Y-73600000D01*
X85100000Y-73600000D02*
X80000000Y-73600000D01*
X80000000Y-73600000D02*
X80000000Y-79400000D01*
X80000000Y-79400000D02*
X85100000Y-79400000D01*
X85100000Y-79400000D02*
X85100000Y-73600000D01*
X57150000Y-40640000D02*
X62230000Y-40640000D01*
X62230000Y-40640000D02*
X62230000Y-43180000D01*
X62230000Y-43180000D02*
X57150000Y-43180000D01*
X54330000Y-43460000D02*
X55880000Y-43460000D01*
X57150000Y-43180000D02*
X57150000Y-40640000D01*
X55880000Y-40360000D02*
X54330000Y-40360000D01*
X54330000Y-40360000D02*
X54330000Y-43460000D01*
X123190000Y-37465000D02*
X123190000Y-45085000D01*
X120650000Y-37465000D02*
X120650000Y-45085000D01*
X120370000Y-34645000D02*
X120370000Y-36195000D01*
X123190000Y-45085000D02*
X120650000Y-45085000D01*
X120650000Y-37465000D02*
X123190000Y-37465000D01*
X123470000Y-36195000D02*
X123470000Y-34645000D01*
X123470000Y-34645000D02*
X120370000Y-34645000D01*
X83145000Y-35655000D02*
X78145000Y-35655000D01*
X83145000Y-36255000D02*
X83145000Y-35655000D01*
X78145000Y-36255000D02*
X78145000Y-35655000D01*
X84495000Y-36255000D02*
X84495000Y-30455000D01*
X76795000Y-36255000D02*
X84495000Y-36255000D01*
X76795000Y-30455000D02*
X76795000Y-36255000D01*
X76795000Y-30455000D02*
X84495000Y-30455000D01*
X41910000Y-72390000D02*
X62230000Y-72390000D01*
X59690000Y-77470000D02*
X41910000Y-77470000D01*
X41910000Y-72390000D02*
X41910000Y-77470000D01*
X62230000Y-72390000D02*
X62230000Y-74930000D01*
X62510000Y-76200000D02*
X62510000Y-77750000D01*
X62230000Y-74930000D02*
X59690000Y-74930000D01*
X59690000Y-74930000D02*
X59690000Y-77470000D01*
X62510000Y-77750000D02*
X60960000Y-77750000D01*
X57785000Y-60325000D02*
X57785000Y-47625000D01*
X57785000Y-47625000D02*
X52705000Y-47625000D01*
X52705000Y-47625000D02*
X52705000Y-57785000D01*
X57785000Y-60325000D02*
X55245000Y-60325000D01*
X53975000Y-60605000D02*
X52425000Y-60605000D01*
X55245000Y-60325000D02*
X55245000Y-57785000D01*
X55245000Y-57785000D02*
X52705000Y-57785000D01*
X52425000Y-60605000D02*
X52425000Y-59055000D01*
X72430000Y-74200000D02*
X77430000Y-74200000D01*
X72430000Y-73600000D02*
X72430000Y-74200000D01*
X77430000Y-73600000D02*
X77430000Y-74200000D01*
X71080000Y-73600000D02*
X71080000Y-79400000D01*
X78780000Y-73600000D02*
X71080000Y-73600000D01*
X78780000Y-79400000D02*
X78780000Y-73600000D01*
X78780000Y-79400000D02*
X71080000Y-79400000D01*
X73660000Y-68580000D02*
X78740000Y-68580000D01*
X78740000Y-68580000D02*
X78740000Y-71120000D01*
X78740000Y-71120000D02*
X73660000Y-71120000D01*
X70840000Y-71400000D02*
X72390000Y-71400000D01*
X73660000Y-71120000D02*
X73660000Y-68580000D01*
X72390000Y-68300000D02*
X70840000Y-68300000D01*
X70840000Y-68300000D02*
X70840000Y-71400000D01*
X92035000Y-35655000D02*
X87035000Y-35655000D01*
X92035000Y-36255000D02*
X92035000Y-35655000D01*
X87035000Y-36255000D02*
X87035000Y-35655000D01*
X93385000Y-36255000D02*
X93385000Y-30455000D01*
X85685000Y-36255000D02*
X93385000Y-36255000D01*
X85685000Y-30455000D02*
X85685000Y-36255000D01*
X85685000Y-30455000D02*
X93385000Y-30455000D01*
X40322500Y-60007500D02*
X42862500Y-60007500D01*
X37502500Y-60287500D02*
X39052500Y-60287500D01*
X40322500Y-60007500D02*
X40322500Y-57467500D01*
X39052500Y-57187500D02*
X37502500Y-57187500D01*
X37502500Y-57187500D02*
X37502500Y-60287500D01*
X40322500Y-57467500D02*
X42862500Y-57467500D01*
X42862500Y-57467500D02*
X42862500Y-60007500D01*
X40322500Y-57467500D02*
X42862500Y-57467500D01*
X37502500Y-57747500D02*
X39052500Y-57747500D01*
X40322500Y-57467500D02*
X40322500Y-54927500D01*
X39052500Y-54647500D02*
X37502500Y-54647500D01*
X37502500Y-54647500D02*
X37502500Y-57747500D01*
X40322500Y-54927500D02*
X42862500Y-54927500D01*
X42862500Y-54927500D02*
X42862500Y-57467500D01*
X40322500Y-54927500D02*
X42862500Y-54927500D01*
X37502500Y-55207500D02*
X39052500Y-55207500D01*
X40322500Y-54927500D02*
X40322500Y-52387500D01*
X39052500Y-52107500D02*
X37502500Y-52107500D01*
X37502500Y-52107500D02*
X37502500Y-55207500D01*
X40322500Y-52387500D02*
X42862500Y-52387500D01*
X42862500Y-52387500D02*
X42862500Y-54927500D01*
X40322500Y-52387500D02*
X42862500Y-52387500D01*
X37502500Y-52667500D02*
X39052500Y-52667500D01*
X40322500Y-52387500D02*
X40322500Y-49847500D01*
X39052500Y-49567500D02*
X37502500Y-49567500D01*
X37502500Y-49567500D02*
X37502500Y-52667500D01*
X40322500Y-49847500D02*
X42862500Y-49847500D01*
X42862500Y-49847500D02*
X42862500Y-52387500D01*
X119380000Y-60325000D02*
X119380000Y-55245000D01*
X119380000Y-55245000D02*
X121920000Y-55245000D01*
X121920000Y-55245000D02*
X121920000Y-60325000D01*
X122200000Y-63145000D02*
X122200000Y-61595000D01*
X121920000Y-60325000D02*
X119380000Y-60325000D01*
X119100000Y-61595000D02*
X119100000Y-63145000D01*
X119100000Y-63145000D02*
X122200000Y-63145000D01*
X98331220Y-40689860D02*
X97970540Y-42160520D01*
X97970540Y-42160520D02*
X97691140Y-41098800D01*
X97691140Y-41098800D02*
X97381260Y-42170680D01*
X97381260Y-42170680D02*
X97040900Y-40720340D01*
X99751080Y-41380740D02*
X98961140Y-41370580D01*
X98961140Y-41370580D02*
X98950980Y-41380740D01*
X98950980Y-41380740D02*
X98950980Y-41370580D01*
X98910340Y-40659380D02*
X98910340Y-42201160D01*
X99799340Y-40649220D02*
X99799340Y-42218940D01*
X99799340Y-42218940D02*
X99789180Y-42208780D01*
X100350520Y-40750820D02*
X100701040Y-40669540D01*
X100701040Y-40669540D02*
X101021080Y-40659380D01*
X101021080Y-40659380D02*
X101259840Y-40860040D01*
X101259840Y-40860040D02*
X101290320Y-41129280D01*
X101290320Y-41129280D02*
X101049020Y-41370580D01*
X101049020Y-41370580D02*
X100660400Y-41500120D01*
X100660400Y-41500120D02*
X100480060Y-41660140D01*
X100480060Y-41660140D02*
X100439420Y-41959860D01*
X100439420Y-41959860D02*
X100670560Y-42180840D01*
X100670560Y-42180840D02*
X100990600Y-42208780D01*
X100990600Y-42208780D02*
X101341120Y-42099560D01*
X102379980Y-40649220D02*
X102628900Y-40669540D01*
X102628900Y-40669540D02*
X102870200Y-40910840D01*
X102870200Y-40910840D02*
X102959100Y-41401060D01*
X102959100Y-41401060D02*
X102931160Y-41749040D01*
X102931160Y-41749040D02*
X102730500Y-42069080D01*
X102730500Y-42069080D02*
X102479040Y-42191000D01*
X102479040Y-42191000D02*
X102169160Y-42119880D01*
X102169160Y-42119880D02*
X101950720Y-41939540D01*
X101950720Y-41939540D02*
X101879600Y-41479800D01*
X101879600Y-41479800D02*
X101930400Y-41070860D01*
X101930400Y-41070860D02*
X102039620Y-40788920D01*
X102039620Y-40788920D02*
X102400300Y-40659380D01*
X101780540Y-38929640D02*
X102039620Y-39490980D01*
X102039620Y-39490980D02*
X101501140Y-40009140D01*
X101501140Y-40009140D02*
X100980440Y-39739900D01*
X100980440Y-39739900D02*
X100701040Y-39899920D01*
X99260860Y-39879600D02*
X98930660Y-39689100D01*
X98930660Y-39689100D02*
X98491240Y-40019300D01*
X98491240Y-40019300D02*
X98018800Y-39529080D01*
X98018800Y-39529080D02*
X98300740Y-39049020D01*
X98300740Y-39049020D02*
X98110240Y-38579120D01*
X98110240Y-38579120D02*
X97500640Y-38391160D01*
X97500640Y-38391160D02*
X97500640Y-37710440D01*
X97500640Y-37710440D02*
X98059440Y-37570740D01*
X98059440Y-37570740D02*
X98260100Y-36999240D01*
X98260100Y-36999240D02*
X97990860Y-36529340D01*
X97990860Y-36529340D02*
X98460760Y-36018800D01*
X98460760Y-36018800D02*
X98978920Y-36280420D01*
X98978920Y-36280420D02*
X99448820Y-36079760D01*
X99448820Y-36079760D02*
X99619000Y-35538740D01*
X99619000Y-35538740D02*
X100309880Y-35520960D01*
X100309880Y-35520960D02*
X100520700Y-36069600D01*
X100520700Y-36069600D02*
X100939800Y-36239780D01*
X100939800Y-36239780D02*
X101490980Y-35970540D01*
X101490980Y-35970540D02*
X102009140Y-36498860D01*
X102009140Y-36498860D02*
X101760220Y-37039880D01*
X101760220Y-37039880D02*
X101930400Y-37519940D01*
X101930400Y-37519940D02*
X102479040Y-37619000D01*
X102479040Y-37619000D02*
X102489200Y-38320040D01*
X102489200Y-38320040D02*
X101930400Y-38520700D01*
X101930400Y-38520700D02*
X101790700Y-38919480D01*
X99649480Y-38899160D02*
X99349760Y-38749300D01*
X99349760Y-38749300D02*
X99149100Y-38551180D01*
X99149100Y-38551180D02*
X98999240Y-38149860D01*
X98999240Y-38149860D02*
X98999240Y-37751080D01*
X98999240Y-37751080D02*
X99149100Y-37400560D01*
X99149100Y-37400560D02*
X99601220Y-37050040D01*
X99601220Y-37050040D02*
X100050800Y-36999240D01*
X100050800Y-36999240D02*
X100449580Y-37100840D01*
X100449580Y-37100840D02*
X100850900Y-37448820D01*
X100850900Y-37448820D02*
X101000760Y-37900940D01*
X101000760Y-37900940D02*
X100949960Y-38398780D01*
X100949960Y-38398780D02*
X100701040Y-38701040D01*
X100701040Y-38701040D02*
X100350520Y-38899160D01*
X100350520Y-38899160D02*
X100701040Y-39899920D01*
X99649480Y-38899160D02*
X99250700Y-39899920D01*
X62055333Y-38441381D02*
X62055333Y-39155667D01*
X62102953Y-39298524D01*
X62198191Y-39393762D01*
X62341048Y-39441381D01*
X62436286Y-39441381D01*
X61055333Y-39441381D02*
X61626762Y-39441381D01*
X61341048Y-39441381D02*
X61341048Y-38441381D01*
X61436286Y-38584238D01*
X61531524Y-38679476D01*
X61626762Y-38727095D01*
X44283190Y-39473143D02*
X44330809Y-39520762D01*
X44473666Y-39568381D01*
X44568904Y-39568381D01*
X44711762Y-39520762D01*
X44807000Y-39425524D01*
X44854619Y-39330286D01*
X44902238Y-39139810D01*
X44902238Y-38996952D01*
X44854619Y-38806476D01*
X44807000Y-38711238D01*
X44711762Y-38616000D01*
X44568904Y-38568381D01*
X44473666Y-38568381D01*
X44330809Y-38616000D01*
X44283190Y-38663619D01*
X43997476Y-38568381D02*
X43426047Y-38568381D01*
X43711762Y-39568381D02*
X43711762Y-38568381D01*
X42521285Y-39568381D02*
X42854619Y-39092190D01*
X43092714Y-39568381D02*
X43092714Y-38568381D01*
X42711761Y-38568381D01*
X42616523Y-38616000D01*
X42568904Y-38663619D01*
X42521285Y-38758857D01*
X42521285Y-38901714D01*
X42568904Y-38996952D01*
X42616523Y-39044571D01*
X42711761Y-39092190D01*
X43092714Y-39092190D01*
X41616523Y-39568381D02*
X42092714Y-39568381D01*
X42092714Y-38568381D01*
X75263333Y-36790381D02*
X75263333Y-37504667D01*
X75310953Y-37647524D01*
X75406191Y-37742762D01*
X75549048Y-37790381D01*
X75644286Y-37790381D01*
X74834762Y-36885619D02*
X74787143Y-36838000D01*
X74691905Y-36790381D01*
X74453809Y-36790381D01*
X74358571Y-36838000D01*
X74310952Y-36885619D01*
X74263333Y-36980857D01*
X74263333Y-37076095D01*
X74310952Y-37218952D01*
X74882381Y-37790381D01*
X74263333Y-37790381D01*
X71659524Y-37790381D02*
X71659524Y-36790381D01*
X71326190Y-37504667D01*
X70992857Y-36790381D01*
X70992857Y-37790381D01*
X70326191Y-36790381D02*
X70135714Y-36790381D01*
X70040476Y-36838000D01*
X69945238Y-36933238D01*
X69897619Y-37123714D01*
X69897619Y-37457048D01*
X69945238Y-37647524D01*
X70040476Y-37742762D01*
X70135714Y-37790381D01*
X70326191Y-37790381D01*
X70421429Y-37742762D01*
X70516667Y-37647524D01*
X70564286Y-37457048D01*
X70564286Y-37123714D01*
X70516667Y-36933238D01*
X70421429Y-36838000D01*
X70326191Y-36790381D01*
X69469048Y-37790381D02*
X69469048Y-36790381D01*
X69230953Y-36790381D01*
X69088095Y-36838000D01*
X68992857Y-36933238D01*
X68945238Y-37028476D01*
X68897619Y-37218952D01*
X68897619Y-37361810D01*
X68945238Y-37552286D01*
X68992857Y-37647524D01*
X69088095Y-37742762D01*
X69230953Y-37790381D01*
X69469048Y-37790381D01*
X68469048Y-37266571D02*
X68135714Y-37266571D01*
X67992857Y-37790381D02*
X68469048Y-37790381D01*
X68469048Y-36790381D01*
X67992857Y-36790381D01*
X93424333Y-72223381D02*
X93424333Y-72937667D01*
X93471953Y-73080524D01*
X93567191Y-73175762D01*
X93710048Y-73223381D01*
X93805286Y-73223381D01*
X93043381Y-72223381D02*
X92424333Y-72223381D01*
X92757667Y-72604333D01*
X92614809Y-72604333D01*
X92519571Y-72651952D01*
X92471952Y-72699571D01*
X92424333Y-72794810D01*
X92424333Y-73032905D01*
X92471952Y-73128143D01*
X92519571Y-73175762D01*
X92614809Y-73223381D01*
X92900524Y-73223381D01*
X92995762Y-73175762D01*
X93043381Y-73128143D01*
X88352190Y-73223381D02*
X88352190Y-72223381D01*
X87923619Y-72318619D02*
X87876000Y-72271000D01*
X87780762Y-72223381D01*
X87542666Y-72223381D01*
X87447428Y-72271000D01*
X87399809Y-72318619D01*
X87352190Y-72413857D01*
X87352190Y-72509095D01*
X87399809Y-72651952D01*
X87971238Y-73223381D01*
X87352190Y-73223381D01*
X86352190Y-73128143D02*
X86399809Y-73175762D01*
X86542666Y-73223381D01*
X86637904Y-73223381D01*
X86780762Y-73175762D01*
X86876000Y-73080524D01*
X86923619Y-72985286D01*
X86971238Y-72794810D01*
X86971238Y-72651952D01*
X86923619Y-72461476D01*
X86876000Y-72366238D01*
X86780762Y-72271000D01*
X86637904Y-72223381D01*
X86542666Y-72223381D01*
X86399809Y-72271000D01*
X86352190Y-72318619D01*
X104600333Y-63587381D02*
X104600333Y-64301667D01*
X104647953Y-64444524D01*
X104743191Y-64539762D01*
X104886048Y-64587381D01*
X104981286Y-64587381D01*
X103695571Y-63920714D02*
X103695571Y-64587381D01*
X103933667Y-63539762D02*
X104171762Y-64254048D01*
X103552714Y-64254048D01*
X93789381Y-64460381D02*
X93789381Y-63460381D01*
X92741762Y-64365143D02*
X92789381Y-64412762D01*
X92932238Y-64460381D01*
X93027476Y-64460381D01*
X93170334Y-64412762D01*
X93265572Y-64317524D01*
X93313191Y-64222286D01*
X93360810Y-64031810D01*
X93360810Y-63888952D01*
X93313191Y-63698476D01*
X93265572Y-63603238D01*
X93170334Y-63508000D01*
X93027476Y-63460381D01*
X92932238Y-63460381D01*
X92789381Y-63508000D01*
X92741762Y-63555619D01*
X92313191Y-63936571D02*
X91979857Y-63936571D01*
X91837000Y-64460381D02*
X92313191Y-64460381D01*
X92313191Y-63460381D01*
X91837000Y-63460381D01*
X84407333Y-72223381D02*
X84407333Y-72937667D01*
X84454953Y-73080524D01*
X84550191Y-73175762D01*
X84693048Y-73223381D01*
X84788286Y-73223381D01*
X83454952Y-72223381D02*
X83931143Y-72223381D01*
X83978762Y-72699571D01*
X83931143Y-72651952D01*
X83835905Y-72604333D01*
X83597809Y-72604333D01*
X83502571Y-72651952D01*
X83454952Y-72699571D01*
X83407333Y-72794810D01*
X83407333Y-73032905D01*
X83454952Y-73128143D01*
X83502571Y-73175762D01*
X83597809Y-73223381D01*
X83835905Y-73223381D01*
X83931143Y-73175762D01*
X83978762Y-73128143D01*
X81549809Y-73128143D02*
X81597428Y-73175762D01*
X81740285Y-73223381D01*
X81835523Y-73223381D01*
X81978381Y-73175762D01*
X82073619Y-73080524D01*
X82121238Y-72985286D01*
X82168857Y-72794810D01*
X82168857Y-72651952D01*
X82121238Y-72461476D01*
X82073619Y-72366238D01*
X81978381Y-72271000D01*
X81835523Y-72223381D01*
X81740285Y-72223381D01*
X81597428Y-72271000D01*
X81549809Y-72318619D01*
X81168857Y-72937667D02*
X80692666Y-72937667D01*
X81264095Y-73223381D02*
X80930762Y-72223381D01*
X80597428Y-73223381D01*
X79787904Y-73223381D02*
X80264095Y-73223381D01*
X80264095Y-72223381D01*
X64087333Y-41362381D02*
X64087333Y-42076667D01*
X64134953Y-42219524D01*
X64230191Y-42314762D01*
X64373048Y-42362381D01*
X64468286Y-42362381D01*
X63182571Y-41362381D02*
X63373048Y-41362381D01*
X63468286Y-41410000D01*
X63515905Y-41457619D01*
X63611143Y-41600476D01*
X63658762Y-41790952D01*
X63658762Y-42171905D01*
X63611143Y-42267143D01*
X63563524Y-42314762D01*
X63468286Y-42362381D01*
X63277809Y-42362381D01*
X63182571Y-42314762D01*
X63134952Y-42267143D01*
X63087333Y-42171905D01*
X63087333Y-41933810D01*
X63134952Y-41838571D01*
X63182571Y-41790952D01*
X63277809Y-41743333D01*
X63468286Y-41743333D01*
X63563524Y-41790952D01*
X63611143Y-41838571D01*
X63658762Y-41933810D01*
X62062857Y-45029381D02*
X62062857Y-44029381D01*
X61681904Y-44029381D01*
X61586666Y-44077000D01*
X61539047Y-44124619D01*
X61491428Y-44219857D01*
X61491428Y-44362714D01*
X61539047Y-44457952D01*
X61586666Y-44505571D01*
X61681904Y-44553190D01*
X62062857Y-44553190D01*
X61158095Y-44029381D02*
X60920000Y-45029381D01*
X60729523Y-44315095D01*
X60539047Y-45029381D01*
X60300952Y-44029381D01*
X59920000Y-45029381D02*
X59920000Y-44029381D01*
X59586666Y-44743667D01*
X59253333Y-44029381D01*
X59253333Y-45029381D01*
X59015238Y-45124619D02*
X58253333Y-45124619D01*
X58015238Y-45029381D02*
X58015238Y-44029381D01*
X57777143Y-44029381D01*
X57634285Y-44077000D01*
X57539047Y-44172238D01*
X57491428Y-44267476D01*
X57443809Y-44457952D01*
X57443809Y-44600810D01*
X57491428Y-44791286D01*
X57539047Y-44886524D01*
X57634285Y-44981762D01*
X57777143Y-45029381D01*
X58015238Y-45029381D01*
X57015238Y-44029381D02*
X57015238Y-44838905D01*
X56967619Y-44934143D01*
X56920000Y-44981762D01*
X56824762Y-45029381D01*
X56634285Y-45029381D01*
X56539047Y-44981762D01*
X56491428Y-44934143D01*
X56443809Y-44838905D01*
X56443809Y-44029381D01*
X56015238Y-44743667D02*
X55539047Y-44743667D01*
X56110476Y-45029381D02*
X55777143Y-44029381D01*
X55443809Y-45029381D01*
X54634285Y-45029381D02*
X55110476Y-45029381D01*
X55110476Y-44029381D01*
X124039381Y-35099667D02*
X124753667Y-35099667D01*
X124896524Y-35052047D01*
X124991762Y-34956809D01*
X125039381Y-34813952D01*
X125039381Y-34718714D01*
X124039381Y-35480619D02*
X124039381Y-36147286D01*
X125039381Y-35718714D01*
X124944143Y-40552953D02*
X124991762Y-40505334D01*
X125039381Y-40362477D01*
X125039381Y-40267239D01*
X124991762Y-40124381D01*
X124896524Y-40029143D01*
X124801286Y-39981524D01*
X124610810Y-39933905D01*
X124467952Y-39933905D01*
X124277476Y-39981524D01*
X124182238Y-40029143D01*
X124087000Y-40124381D01*
X124039381Y-40267239D01*
X124039381Y-40362477D01*
X124087000Y-40505334D01*
X124134619Y-40552953D01*
X124039381Y-40838667D02*
X124039381Y-41410096D01*
X125039381Y-41124381D02*
X124039381Y-41124381D01*
X125039381Y-42314858D02*
X124563190Y-41981524D01*
X125039381Y-41743429D02*
X124039381Y-41743429D01*
X124039381Y-42124382D01*
X124087000Y-42219620D01*
X124134619Y-42267239D01*
X124229857Y-42314858D01*
X124372714Y-42314858D01*
X124467952Y-42267239D01*
X124515571Y-42219620D01*
X124563190Y-42124382D01*
X124563190Y-41743429D01*
X125039381Y-43219620D02*
X125039381Y-42743429D01*
X124039381Y-42743429D01*
X125134619Y-43314858D02*
X125134619Y-44076763D01*
X125039381Y-44314858D02*
X124039381Y-44314858D01*
X125039381Y-44791048D02*
X124039381Y-44791048D01*
X125039381Y-45362477D01*
X124039381Y-45362477D01*
X83899333Y-36663381D02*
X83899333Y-37377667D01*
X83946953Y-37520524D01*
X84042191Y-37615762D01*
X84185048Y-37663381D01*
X84280286Y-37663381D01*
X83280286Y-37091952D02*
X83375524Y-37044333D01*
X83423143Y-36996714D01*
X83470762Y-36901476D01*
X83470762Y-36853857D01*
X83423143Y-36758619D01*
X83375524Y-36711000D01*
X83280286Y-36663381D01*
X83089809Y-36663381D01*
X82994571Y-36711000D01*
X82946952Y-36758619D01*
X82899333Y-36853857D01*
X82899333Y-36901476D01*
X82946952Y-36996714D01*
X82994571Y-37044333D01*
X83089809Y-37091952D01*
X83280286Y-37091952D01*
X83375524Y-37139571D01*
X83423143Y-37187190D01*
X83470762Y-37282429D01*
X83470762Y-37472905D01*
X83423143Y-37568143D01*
X83375524Y-37615762D01*
X83280286Y-37663381D01*
X83089809Y-37663381D01*
X82994571Y-37615762D01*
X82946952Y-37568143D01*
X82899333Y-37472905D01*
X82899333Y-37282429D01*
X82946952Y-37187190D01*
X82994571Y-37139571D01*
X83089809Y-37091952D01*
X81176524Y-37615762D02*
X81033667Y-37663381D01*
X80795571Y-37663381D01*
X80700333Y-37615762D01*
X80652714Y-37568143D01*
X80605095Y-37472905D01*
X80605095Y-37377667D01*
X80652714Y-37282429D01*
X80700333Y-37234810D01*
X80795571Y-37187190D01*
X80986048Y-37139571D01*
X81081286Y-37091952D01*
X81128905Y-37044333D01*
X81176524Y-36949095D01*
X81176524Y-36853857D01*
X81128905Y-36758619D01*
X81081286Y-36711000D01*
X80986048Y-36663381D01*
X80747952Y-36663381D01*
X80605095Y-36711000D01*
X80176524Y-37139571D02*
X79843190Y-37139571D01*
X79700333Y-37663381D02*
X80176524Y-37663381D01*
X80176524Y-36663381D01*
X79700333Y-36663381D01*
X78700333Y-37663381D02*
X79033667Y-37187190D01*
X79271762Y-37663381D02*
X79271762Y-36663381D01*
X78890809Y-36663381D01*
X78795571Y-36711000D01*
X78747952Y-36758619D01*
X78700333Y-36853857D01*
X78700333Y-36996714D01*
X78747952Y-37091952D01*
X78795571Y-37139571D01*
X78890809Y-37187190D01*
X79271762Y-37187190D01*
X78271762Y-37663381D02*
X78271762Y-36663381D01*
X77843191Y-37377667D02*
X77367000Y-37377667D01*
X77938429Y-37663381D02*
X77605096Y-36663381D01*
X77271762Y-37663381D01*
X76462238Y-37663381D02*
X76938429Y-37663381D01*
X76938429Y-36663381D01*
X61928333Y-70572381D02*
X61928333Y-71286667D01*
X61975953Y-71429524D01*
X62071191Y-71524762D01*
X62214048Y-71572381D01*
X62309286Y-71572381D01*
X61404524Y-71572381D02*
X61214048Y-71572381D01*
X61118809Y-71524762D01*
X61071190Y-71477143D01*
X60975952Y-71334286D01*
X60928333Y-71143810D01*
X60928333Y-70762857D01*
X60975952Y-70667619D01*
X61023571Y-70620000D01*
X61118809Y-70572381D01*
X61309286Y-70572381D01*
X61404524Y-70620000D01*
X61452143Y-70667619D01*
X61499762Y-70762857D01*
X61499762Y-71000952D01*
X61452143Y-71096190D01*
X61404524Y-71143810D01*
X61309286Y-71191429D01*
X61118809Y-71191429D01*
X61023571Y-71143810D01*
X60975952Y-71096190D01*
X60928333Y-71000952D01*
X46029286Y-71048571D02*
X45695952Y-71048571D01*
X45553095Y-71572381D02*
X46029286Y-71572381D01*
X46029286Y-70572381D01*
X45553095Y-70572381D01*
X45219762Y-70572381D02*
X44553095Y-71572381D01*
X44553095Y-70572381D02*
X45219762Y-71572381D01*
X44315000Y-70572381D02*
X43743571Y-70572381D01*
X44029286Y-71572381D02*
X44029286Y-70572381D01*
X43648333Y-71667619D02*
X42886428Y-71667619D01*
X42648333Y-71572381D02*
X42648333Y-70572381D01*
X41981667Y-70572381D02*
X41791190Y-70572381D01*
X41695952Y-70620000D01*
X41600714Y-70715238D01*
X41553095Y-70905714D01*
X41553095Y-71239048D01*
X41600714Y-71429524D01*
X41695952Y-71524762D01*
X41791190Y-71572381D01*
X41981667Y-71572381D01*
X42076905Y-71524762D01*
X42172143Y-71429524D01*
X42219762Y-71239048D01*
X42219762Y-70905714D01*
X42172143Y-70715238D01*
X42076905Y-70620000D01*
X41981667Y-70572381D01*
X58086523Y-61301381D02*
X58086523Y-62015667D01*
X58134143Y-62158524D01*
X58229381Y-62253762D01*
X58372238Y-62301381D01*
X58467476Y-62301381D01*
X57086523Y-62301381D02*
X57657952Y-62301381D01*
X57372238Y-62301381D02*
X57372238Y-61301381D01*
X57467476Y-61444238D01*
X57562714Y-61539476D01*
X57657952Y-61587095D01*
X56467476Y-61301381D02*
X56372237Y-61301381D01*
X56276999Y-61349000D01*
X56229380Y-61396619D01*
X56181761Y-61491857D01*
X56134142Y-61682333D01*
X56134142Y-61920429D01*
X56181761Y-62110905D01*
X56229380Y-62206143D01*
X56276999Y-62253762D01*
X56372237Y-62301381D01*
X56467476Y-62301381D01*
X56562714Y-62253762D01*
X56610333Y-62206143D01*
X56657952Y-62110905D01*
X56705571Y-61920429D01*
X56705571Y-61682333D01*
X56657952Y-61491857D01*
X56610333Y-61396619D01*
X56562714Y-61349000D01*
X56467476Y-61301381D01*
X54109809Y-62253762D02*
X53966952Y-62301381D01*
X53728856Y-62301381D01*
X53633618Y-62253762D01*
X53585999Y-62206143D01*
X53538380Y-62110905D01*
X53538380Y-62015667D01*
X53585999Y-61920429D01*
X53633618Y-61872810D01*
X53728856Y-61825190D01*
X53919333Y-61777571D01*
X54014571Y-61729952D01*
X54062190Y-61682333D01*
X54109809Y-61587095D01*
X54109809Y-61491857D01*
X54062190Y-61396619D01*
X54014571Y-61349000D01*
X53919333Y-61301381D01*
X53681237Y-61301381D01*
X53538380Y-61349000D01*
X53109809Y-62301381D02*
X53109809Y-61301381D01*
X52728856Y-61301381D01*
X52633618Y-61349000D01*
X52585999Y-61396619D01*
X52538380Y-61491857D01*
X52538380Y-61634714D01*
X52585999Y-61729952D01*
X52633618Y-61777571D01*
X52728856Y-61825190D01*
X53109809Y-61825190D01*
X52109809Y-62301381D02*
X52109809Y-61301381D01*
X78406523Y-72223381D02*
X78406523Y-72937667D01*
X78454143Y-73080524D01*
X78549381Y-73175762D01*
X78692238Y-73223381D01*
X78787476Y-73223381D01*
X77406523Y-73223381D02*
X77977952Y-73223381D01*
X77692238Y-73223381D02*
X77692238Y-72223381D01*
X77787476Y-72366238D01*
X77882714Y-72461476D01*
X77977952Y-72509095D01*
X76454142Y-73223381D02*
X77025571Y-73223381D01*
X76739857Y-73223381D02*
X76739857Y-72223381D01*
X76835095Y-72366238D01*
X76930333Y-72461476D01*
X77025571Y-72509095D01*
X75485238Y-72699571D02*
X75151904Y-72699571D01*
X75009047Y-73223381D02*
X75485238Y-73223381D01*
X75485238Y-72223381D01*
X75009047Y-72223381D01*
X74675714Y-72223381D02*
X74009047Y-73223381D01*
X74009047Y-72223381D02*
X74675714Y-73223381D01*
X73770952Y-72223381D02*
X73199523Y-72223381D01*
X73485238Y-73223381D02*
X73485238Y-72223381D01*
X73104285Y-73318619D02*
X72342380Y-73318619D01*
X72104285Y-73223381D02*
X72104285Y-72223381D01*
X71723332Y-72223381D01*
X71628094Y-72271000D01*
X71580475Y-72318619D01*
X71532856Y-72413857D01*
X71532856Y-72556714D01*
X71580475Y-72651952D01*
X71628094Y-72699571D01*
X71723332Y-72747190D01*
X72104285Y-72747190D01*
X71199523Y-72223381D02*
X70961428Y-73223381D01*
X70770951Y-72509095D01*
X70580475Y-73223381D01*
X70342380Y-72223381D01*
X69961428Y-73223381D02*
X69961428Y-72223381D01*
X69628094Y-72937667D01*
X69294761Y-72223381D01*
X69294761Y-73223381D01*
X78660523Y-66762381D02*
X78660523Y-67476667D01*
X78708143Y-67619524D01*
X78803381Y-67714762D01*
X78946238Y-67762381D01*
X79041476Y-67762381D01*
X77660523Y-67762381D02*
X78231952Y-67762381D01*
X77946238Y-67762381D02*
X77946238Y-66762381D01*
X78041476Y-66905238D01*
X78136714Y-67000476D01*
X78231952Y-67048095D01*
X77279571Y-66857619D02*
X77231952Y-66810000D01*
X77136714Y-66762381D01*
X76898618Y-66762381D01*
X76803380Y-66810000D01*
X76755761Y-66857619D01*
X76708142Y-66952857D01*
X76708142Y-67048095D01*
X76755761Y-67190952D01*
X77327190Y-67762381D01*
X76708142Y-67762381D01*
X75056334Y-67238571D02*
X74723000Y-67238571D01*
X74580143Y-67762381D02*
X75056334Y-67762381D01*
X75056334Y-66762381D01*
X74580143Y-66762381D01*
X74246810Y-66762381D02*
X73580143Y-67762381D01*
X73580143Y-66762381D02*
X74246810Y-67762381D01*
X73342048Y-66762381D02*
X72770619Y-66762381D01*
X73056334Y-67762381D02*
X73056334Y-66762381D01*
X72675381Y-67857619D02*
X71913476Y-67857619D01*
X71675381Y-67762381D02*
X71675381Y-66762381D01*
X71294428Y-66762381D01*
X71199190Y-66810000D01*
X71151571Y-66857619D01*
X71103952Y-66952857D01*
X71103952Y-67095714D01*
X71151571Y-67190952D01*
X71199190Y-67238571D01*
X71294428Y-67286190D01*
X71675381Y-67286190D01*
X70770619Y-66762381D02*
X70532524Y-67762381D01*
X70342047Y-67048095D01*
X70151571Y-67762381D01*
X69913476Y-66762381D01*
X69532524Y-67762381D02*
X69532524Y-66762381D01*
X69199190Y-67476667D01*
X68865857Y-66762381D01*
X68865857Y-67762381D01*
X68627762Y-67857619D02*
X67865857Y-67857619D01*
X67627762Y-67762381D02*
X67627762Y-66762381D01*
X67389667Y-66762381D01*
X67246809Y-66810000D01*
X67151571Y-66905238D01*
X67103952Y-67000476D01*
X67056333Y-67190952D01*
X67056333Y-67333810D01*
X67103952Y-67524286D01*
X67151571Y-67619524D01*
X67246809Y-67714762D01*
X67389667Y-67762381D01*
X67627762Y-67762381D01*
X66627762Y-66762381D02*
X66627762Y-67571905D01*
X66580143Y-67667143D01*
X66532524Y-67714762D01*
X66437286Y-67762381D01*
X66246809Y-67762381D01*
X66151571Y-67714762D01*
X66103952Y-67667143D01*
X66056333Y-67571905D01*
X66056333Y-66762381D01*
X65627762Y-67476667D02*
X65151571Y-67476667D01*
X65723000Y-67762381D02*
X65389667Y-66762381D01*
X65056333Y-67762381D01*
X64246809Y-67762381D02*
X64723000Y-67762381D01*
X64723000Y-66762381D01*
X93265523Y-36663381D02*
X93265523Y-37377667D01*
X93313143Y-37520524D01*
X93408381Y-37615762D01*
X93551238Y-37663381D01*
X93646476Y-37663381D01*
X92265523Y-37663381D02*
X92836952Y-37663381D01*
X92551238Y-37663381D02*
X92551238Y-36663381D01*
X92646476Y-36806238D01*
X92741714Y-36901476D01*
X92836952Y-36949095D01*
X91932190Y-36663381D02*
X91313142Y-36663381D01*
X91646476Y-37044333D01*
X91503618Y-37044333D01*
X91408380Y-37091952D01*
X91360761Y-37139571D01*
X91313142Y-37234810D01*
X91313142Y-37472905D01*
X91360761Y-37568143D01*
X91408380Y-37615762D01*
X91503618Y-37663381D01*
X91789333Y-37663381D01*
X91884571Y-37615762D01*
X91932190Y-37568143D01*
X88764904Y-37663381D02*
X89336333Y-37663381D01*
X89050619Y-37663381D02*
X89050619Y-36663381D01*
X89145857Y-36806238D01*
X89241095Y-36901476D01*
X89336333Y-36949095D01*
X88431571Y-36663381D02*
X88193476Y-37663381D01*
X88002999Y-36949095D01*
X87812523Y-37663381D01*
X87574428Y-36663381D01*
X87193476Y-37663381D02*
X87193476Y-36996714D01*
X87193476Y-36663381D02*
X87241095Y-36711000D01*
X87193476Y-36758619D01*
X87145857Y-36711000D01*
X87193476Y-36663381D01*
X87193476Y-36758619D01*
X86717286Y-37663381D02*
X86717286Y-36996714D01*
X86717286Y-37187190D02*
X86669667Y-37091952D01*
X86622048Y-37044333D01*
X86526810Y-36996714D01*
X86431571Y-36996714D01*
X85717285Y-37615762D02*
X85812523Y-37663381D01*
X86003000Y-37663381D01*
X86098238Y-37615762D01*
X86145857Y-37520524D01*
X86145857Y-37139571D01*
X86098238Y-37044333D01*
X86003000Y-36996714D01*
X85812523Y-36996714D01*
X85717285Y-37044333D01*
X85669666Y-37139571D01*
X85669666Y-37234810D01*
X86145857Y-37330048D01*
X45894523Y-58253381D02*
X45894523Y-58967667D01*
X45942143Y-59110524D01*
X46037381Y-59205762D01*
X46180238Y-59253381D01*
X46275476Y-59253381D01*
X44894523Y-59253381D02*
X45465952Y-59253381D01*
X45180238Y-59253381D02*
X45180238Y-58253381D01*
X45275476Y-58396238D01*
X45370714Y-58491476D01*
X45465952Y-58539095D01*
X44037380Y-58586714D02*
X44037380Y-59253381D01*
X44275476Y-58205762D02*
X44513571Y-58920048D01*
X43894523Y-58920048D01*
X45894523Y-55586381D02*
X45894523Y-56300667D01*
X45942143Y-56443524D01*
X46037381Y-56538762D01*
X46180238Y-56586381D01*
X46275476Y-56586381D01*
X44894523Y-56586381D02*
X45465952Y-56586381D01*
X45180238Y-56586381D02*
X45180238Y-55586381D01*
X45275476Y-55729238D01*
X45370714Y-55824476D01*
X45465952Y-55872095D01*
X43989761Y-55586381D02*
X44465952Y-55586381D01*
X44513571Y-56062571D01*
X44465952Y-56014952D01*
X44370714Y-55967333D01*
X44132618Y-55967333D01*
X44037380Y-56014952D01*
X43989761Y-56062571D01*
X43942142Y-56157810D01*
X43942142Y-56395905D01*
X43989761Y-56491143D01*
X44037380Y-56538762D01*
X44132618Y-56586381D01*
X44370714Y-56586381D01*
X44465952Y-56538762D01*
X44513571Y-56491143D01*
X45894523Y-53173381D02*
X45894523Y-53887667D01*
X45942143Y-54030524D01*
X46037381Y-54125762D01*
X46180238Y-54173381D01*
X46275476Y-54173381D01*
X44894523Y-54173381D02*
X45465952Y-54173381D01*
X45180238Y-54173381D02*
X45180238Y-53173381D01*
X45275476Y-53316238D01*
X45370714Y-53411476D01*
X45465952Y-53459095D01*
X44037380Y-53173381D02*
X44227857Y-53173381D01*
X44323095Y-53221000D01*
X44370714Y-53268619D01*
X44465952Y-53411476D01*
X44513571Y-53601952D01*
X44513571Y-53982905D01*
X44465952Y-54078143D01*
X44418333Y-54125762D01*
X44323095Y-54173381D01*
X44132618Y-54173381D01*
X44037380Y-54125762D01*
X43989761Y-54078143D01*
X43942142Y-53982905D01*
X43942142Y-53744810D01*
X43989761Y-53649571D01*
X44037380Y-53601952D01*
X44132618Y-53554333D01*
X44323095Y-53554333D01*
X44418333Y-53601952D01*
X44465952Y-53649571D01*
X44513571Y-53744810D01*
X45767523Y-50633381D02*
X45767523Y-51347667D01*
X45815143Y-51490524D01*
X45910381Y-51585762D01*
X46053238Y-51633381D01*
X46148476Y-51633381D01*
X44767523Y-51633381D02*
X45338952Y-51633381D01*
X45053238Y-51633381D02*
X45053238Y-50633381D01*
X45148476Y-50776238D01*
X45243714Y-50871476D01*
X45338952Y-50919095D01*
X44434190Y-50633381D02*
X43767523Y-50633381D01*
X44196095Y-51633381D01*
X120102381Y-64087477D02*
X120816667Y-64087477D01*
X120959524Y-64039857D01*
X121054762Y-63944619D01*
X121102381Y-63801762D01*
X121102381Y-63706524D01*
X121102381Y-65087477D02*
X121102381Y-64516048D01*
X121102381Y-64801762D02*
X120102381Y-64801762D01*
X120245238Y-64706524D01*
X120340476Y-64611286D01*
X120388095Y-64516048D01*
X120530952Y-65658905D02*
X120483333Y-65563667D01*
X120435714Y-65516048D01*
X120340476Y-65468429D01*
X120292857Y-65468429D01*
X120197619Y-65516048D01*
X120150000Y-65563667D01*
X120102381Y-65658905D01*
X120102381Y-65849382D01*
X120150000Y-65944620D01*
X120197619Y-65992239D01*
X120292857Y-66039858D01*
X120340476Y-66039858D01*
X120435714Y-65992239D01*
X120483333Y-65944620D01*
X120530952Y-65849382D01*
X120530952Y-65658905D01*
X120578571Y-65563667D01*
X120626190Y-65516048D01*
X120721429Y-65468429D01*
X120911905Y-65468429D01*
X121007143Y-65516048D01*
X121054762Y-65563667D01*
X121102381Y-65658905D01*
X121102381Y-65849382D01*
X121054762Y-65944620D01*
X121007143Y-65992239D01*
X120911905Y-66039858D01*
X120721429Y-66039858D01*
X120626190Y-65992239D01*
X120578571Y-65944620D01*
X120530952Y-65849382D01*
X117911571Y-54801047D02*
X117911571Y-55134381D01*
X118435381Y-55277238D02*
X118435381Y-54801047D01*
X117435381Y-54801047D01*
X117435381Y-55277238D01*
X118435381Y-55705809D02*
X117435381Y-55705809D01*
X118435381Y-56277238D01*
X117435381Y-56277238D01*
X118340143Y-57324857D02*
X118387762Y-57277238D01*
X118435381Y-57134381D01*
X118435381Y-57039143D01*
X118387762Y-56896285D01*
X118292524Y-56801047D01*
X118197286Y-56753428D01*
X118006810Y-56705809D01*
X117863952Y-56705809D01*
X117673476Y-56753428D01*
X117578238Y-56801047D01*
X117483000Y-56896285D01*
X117435381Y-57039143D01*
X117435381Y-57134381D01*
X117483000Y-57277238D01*
X117530619Y-57324857D01*
X118530619Y-57515333D02*
X118530619Y-58277238D01*
X118387762Y-58467714D02*
X118435381Y-58610571D01*
X118435381Y-58848667D01*
X118387762Y-58943905D01*
X118340143Y-58991524D01*
X118244905Y-59039143D01*
X118149667Y-59039143D01*
X118054429Y-58991524D01*
X118006810Y-58943905D01*
X117959190Y-58848667D01*
X117911571Y-58658190D01*
X117863952Y-58562952D01*
X117816333Y-58515333D01*
X117721095Y-58467714D01*
X117625857Y-58467714D01*
X117530619Y-58515333D01*
X117483000Y-58562952D01*
X117435381Y-58658190D01*
X117435381Y-58896286D01*
X117483000Y-59039143D01*
X117435381Y-59372476D02*
X118435381Y-59610571D01*
X117721095Y-59801048D01*
X118435381Y-59991524D01*
X117435381Y-60229619D01*
X118530619Y-60372476D02*
X118530619Y-61134381D01*
X118387762Y-61324857D02*
X118435381Y-61467714D01*
X118435381Y-61705810D01*
X118387762Y-61801048D01*
X118340143Y-61848667D01*
X118244905Y-61896286D01*
X118149667Y-61896286D01*
X118054429Y-61848667D01*
X118006810Y-61801048D01*
X117959190Y-61705810D01*
X117911571Y-61515333D01*
X117863952Y-61420095D01*
X117816333Y-61372476D01*
X117721095Y-61324857D01*
X117625857Y-61324857D01*
X117530619Y-61372476D01*
X117483000Y-61420095D01*
X117435381Y-61515333D01*
X117435381Y-61753429D01*
X117483000Y-61896286D01*
X117911571Y-62324857D02*
X117911571Y-62658191D01*
X118435381Y-62801048D02*
X118435381Y-62324857D01*
X117435381Y-62324857D01*
X117435381Y-62801048D01*
X118435381Y-63705810D02*
X118435381Y-63229619D01*
X117435381Y-63229619D01*
M02*
