G04 #@! TF.FileFunction,Legend,Top*
%FSLAX46Y46*%
G04 Gerber Fmt 4.6, Leading zero omitted, Abs format (unit mm)*
G04 Created by KiCad (PCBNEW (2015-06-16 BZR 5762, Git d3b3131)-product) date 2015.07.11. 4:53:42*
%MOMM*%
G01*
G04 APERTURE LIST*
%ADD10C,0.100000*%
%ADD11C,0.150000*%
G04 APERTURE END LIST*
D10*
D11*
X87411000Y-46070000D02*
X87411000Y-45370000D01*
X88611000Y-45370000D02*
X88611000Y-46070000D01*
X84105000Y-43215000D02*
X84805000Y-43215000D01*
X84805000Y-44415000D02*
X84105000Y-44415000D01*
X69250000Y-69565000D02*
X69250000Y-68865000D01*
X70450000Y-68865000D02*
X70450000Y-69565000D01*
X70450000Y-73310000D02*
X70450000Y-74010000D01*
X69250000Y-74010000D02*
X69250000Y-73310000D01*
X100269040Y-71048880D02*
X105470960Y-71048880D01*
X105470960Y-68651120D02*
X100269040Y-68651120D01*
X98270060Y-67551300D02*
X98270060Y-68651120D01*
X97670620Y-68051680D02*
X98869500Y-68051680D01*
X98874580Y-68651120D02*
X98874580Y-71048880D01*
X68295000Y-48860000D02*
X67595000Y-48860000D01*
X67595000Y-47660000D02*
X68295000Y-47660000D01*
X74326000Y-45183500D02*
X75026000Y-45183500D01*
X75026000Y-46383500D02*
X74326000Y-46383500D01*
X124425000Y-61880000D02*
X124425000Y-62580000D01*
X123225000Y-62580000D02*
X123225000Y-61880000D01*
X143500000Y-55000000D02*
G75*
G03X143500000Y-55000000I-2500000J0D01*
G01*
X135250000Y-62750000D02*
X146750000Y-62750000D01*
X146750000Y-62750000D02*
X146750000Y-47750000D01*
X146750000Y-47750000D02*
X135250000Y-47750000D01*
X135250000Y-47750000D02*
X135250000Y-62750000D01*
X98465000Y-75700000D02*
X98465000Y-76700000D01*
X97115000Y-76700000D02*
X97115000Y-75700000D01*
X79510000Y-71715000D02*
X80510000Y-71715000D01*
X80510000Y-73065000D02*
X79510000Y-73065000D01*
X96560000Y-75700000D02*
X96560000Y-76700000D01*
X95210000Y-76700000D02*
X95210000Y-75700000D01*
X73795000Y-36790000D02*
X74795000Y-36790000D01*
X74795000Y-38140000D02*
X73795000Y-38140000D01*
X69715000Y-38140000D02*
X68715000Y-38140000D01*
X68715000Y-36790000D02*
X69715000Y-36790000D01*
X84955000Y-46395000D02*
X83955000Y-46395000D01*
X83955000Y-45045000D02*
X84955000Y-45045000D01*
X86860000Y-50205000D02*
X85860000Y-50205000D01*
X85860000Y-48855000D02*
X86860000Y-48855000D01*
X92035000Y-46220000D02*
X92035000Y-45220000D01*
X93385000Y-45220000D02*
X93385000Y-46220000D01*
X89495000Y-44950000D02*
X89495000Y-43950000D01*
X90845000Y-43950000D02*
X90845000Y-44950000D01*
X111965000Y-56150000D02*
X111965000Y-58150000D01*
X109015000Y-58150000D02*
X109015000Y-56150000D01*
X101640000Y-75700000D02*
X101640000Y-76700000D01*
X100290000Y-76700000D02*
X100290000Y-75700000D01*
X137755000Y-37965000D02*
X137755000Y-36965000D01*
X139105000Y-36965000D02*
X139105000Y-37965000D01*
X124595000Y-58380000D02*
X125595000Y-58380000D01*
X125595000Y-59730000D02*
X124595000Y-59730000D01*
X70525000Y-64270000D02*
X70525000Y-65270000D01*
X69175000Y-65270000D02*
X69175000Y-64270000D01*
X69375000Y-51375000D02*
X69375000Y-51900000D01*
X76625000Y-51375000D02*
X76625000Y-51900000D01*
X76625000Y-58625000D02*
X76625000Y-58100000D01*
X69375000Y-58625000D02*
X69375000Y-58100000D01*
X69375000Y-51375000D02*
X69900000Y-51375000D01*
X69375000Y-58625000D02*
X69900000Y-58625000D01*
X76625000Y-58625000D02*
X76100000Y-58625000D01*
X76625000Y-51375000D02*
X76100000Y-51375000D01*
X69375000Y-51900000D02*
X68000000Y-51900000D01*
X105600000Y-80000000D02*
X105600000Y-30000000D01*
X36400000Y-80000000D02*
X36400000Y-30000000D01*
X116000000Y-80000000D02*
X116000000Y-30000000D01*
X116000000Y-30000000D02*
X30000000Y-30000000D01*
X30000000Y-30000000D02*
X30000000Y-80000000D01*
X30000000Y-80000000D02*
X116000000Y-80000000D01*
X68539360Y-75699620D02*
X68539360Y-64000380D01*
X63540640Y-64000380D02*
X63540640Y-75699620D01*
X68539360Y-64000380D02*
X67691000Y-64000380D01*
X63540640Y-64000380D02*
X64389000Y-64000380D01*
X68539360Y-75699620D02*
X67691000Y-75699620D01*
X63540640Y-75699620D02*
X64389000Y-75699620D01*
X88495143Y-42711666D02*
X88542762Y-42759285D01*
X88590381Y-42902142D01*
X88590381Y-42997380D01*
X88542762Y-43140238D01*
X88447524Y-43235476D01*
X88352286Y-43283095D01*
X88161810Y-43330714D01*
X88018952Y-43330714D01*
X87828476Y-43283095D01*
X87733238Y-43235476D01*
X87638000Y-43140238D01*
X87590381Y-42997380D01*
X87590381Y-42902142D01*
X87638000Y-42759285D01*
X87685619Y-42711666D01*
X88590381Y-41759285D02*
X88590381Y-42330714D01*
X88590381Y-42045000D02*
X87590381Y-42045000D01*
X87733238Y-42140238D01*
X87828476Y-42235476D01*
X87876095Y-42330714D01*
X81113334Y-44172143D02*
X81065715Y-44219762D01*
X80922858Y-44267381D01*
X80827620Y-44267381D01*
X80684762Y-44219762D01*
X80589524Y-44124524D01*
X80541905Y-44029286D01*
X80494286Y-43838810D01*
X80494286Y-43695952D01*
X80541905Y-43505476D01*
X80589524Y-43410238D01*
X80684762Y-43315000D01*
X80827620Y-43267381D01*
X80922858Y-43267381D01*
X81065715Y-43315000D01*
X81113334Y-43362619D01*
X81494286Y-43362619D02*
X81541905Y-43315000D01*
X81637143Y-43267381D01*
X81875239Y-43267381D01*
X81970477Y-43315000D01*
X82018096Y-43362619D01*
X82065715Y-43457857D01*
X82065715Y-43553095D01*
X82018096Y-43695952D01*
X81446667Y-44267381D01*
X82065715Y-44267381D01*
X71858143Y-67222666D02*
X71905762Y-67270285D01*
X71953381Y-67413142D01*
X71953381Y-67508380D01*
X71905762Y-67651238D01*
X71810524Y-67746476D01*
X71715286Y-67794095D01*
X71524810Y-67841714D01*
X71381952Y-67841714D01*
X71191476Y-67794095D01*
X71096238Y-67746476D01*
X71001000Y-67651238D01*
X70953381Y-67508380D01*
X70953381Y-67413142D01*
X71001000Y-67270285D01*
X71048619Y-67222666D01*
X70953381Y-66889333D02*
X70953381Y-66270285D01*
X71334333Y-66603619D01*
X71334333Y-66460761D01*
X71381952Y-66365523D01*
X71429571Y-66317904D01*
X71524810Y-66270285D01*
X71762905Y-66270285D01*
X71858143Y-66317904D01*
X71905762Y-66365523D01*
X71953381Y-66460761D01*
X71953381Y-66746476D01*
X71905762Y-66841714D01*
X71858143Y-66889333D01*
X70334143Y-76874666D02*
X70381762Y-76922285D01*
X70429381Y-77065142D01*
X70429381Y-77160380D01*
X70381762Y-77303238D01*
X70286524Y-77398476D01*
X70191286Y-77446095D01*
X70000810Y-77493714D01*
X69857952Y-77493714D01*
X69667476Y-77446095D01*
X69572238Y-77398476D01*
X69477000Y-77303238D01*
X69429381Y-77160380D01*
X69429381Y-77065142D01*
X69477000Y-76922285D01*
X69524619Y-76874666D01*
X69762714Y-76017523D02*
X70429381Y-76017523D01*
X69381762Y-76255619D02*
X70096048Y-76493714D01*
X70096048Y-75874666D01*
X102502674Y-67108343D02*
X102455055Y-67155962D01*
X102312198Y-67203581D01*
X102216960Y-67203581D01*
X102074102Y-67155962D01*
X101978864Y-67060724D01*
X101931245Y-66965486D01*
X101883626Y-66775010D01*
X101883626Y-66632152D01*
X101931245Y-66441676D01*
X101978864Y-66346438D01*
X102074102Y-66251200D01*
X102216960Y-66203581D01*
X102312198Y-66203581D01*
X102455055Y-66251200D01*
X102502674Y-66298819D01*
X103407436Y-66203581D02*
X102931245Y-66203581D01*
X102883626Y-66679771D01*
X102931245Y-66632152D01*
X103026483Y-66584533D01*
X103264579Y-66584533D01*
X103359817Y-66632152D01*
X103407436Y-66679771D01*
X103455055Y-66775010D01*
X103455055Y-67013105D01*
X103407436Y-67108343D01*
X103359817Y-67155962D01*
X103264579Y-67203581D01*
X103026483Y-67203581D01*
X102931245Y-67155962D01*
X102883626Y-67108343D01*
X97889108Y-68120569D02*
X98651013Y-68120569D01*
X98270061Y-68501521D02*
X98270061Y-67739616D01*
X64603334Y-48617143D02*
X64555715Y-48664762D01*
X64412858Y-48712381D01*
X64317620Y-48712381D01*
X64174762Y-48664762D01*
X64079524Y-48569524D01*
X64031905Y-48474286D01*
X63984286Y-48283810D01*
X63984286Y-48140952D01*
X64031905Y-47950476D01*
X64079524Y-47855238D01*
X64174762Y-47760000D01*
X64317620Y-47712381D01*
X64412858Y-47712381D01*
X64555715Y-47760000D01*
X64603334Y-47807619D01*
X65460477Y-47712381D02*
X65270000Y-47712381D01*
X65174762Y-47760000D01*
X65127143Y-47807619D01*
X65031905Y-47950476D01*
X64984286Y-48140952D01*
X64984286Y-48521905D01*
X65031905Y-48617143D01*
X65079524Y-48664762D01*
X65174762Y-48712381D01*
X65365239Y-48712381D01*
X65460477Y-48664762D01*
X65508096Y-48617143D01*
X65555715Y-48521905D01*
X65555715Y-48283810D01*
X65508096Y-48188571D01*
X65460477Y-48140952D01*
X65365239Y-48093333D01*
X65174762Y-48093333D01*
X65079524Y-48140952D01*
X65031905Y-48188571D01*
X64984286Y-48283810D01*
X71588334Y-46204143D02*
X71540715Y-46251762D01*
X71397858Y-46299381D01*
X71302620Y-46299381D01*
X71159762Y-46251762D01*
X71064524Y-46156524D01*
X71016905Y-46061286D01*
X70969286Y-45870810D01*
X70969286Y-45727952D01*
X71016905Y-45537476D01*
X71064524Y-45442238D01*
X71159762Y-45347000D01*
X71302620Y-45299381D01*
X71397858Y-45299381D01*
X71540715Y-45347000D01*
X71588334Y-45394619D01*
X71921667Y-45299381D02*
X72588334Y-45299381D01*
X72159762Y-46299381D01*
X124182143Y-65317666D02*
X124229762Y-65365285D01*
X124277381Y-65508142D01*
X124277381Y-65603380D01*
X124229762Y-65746238D01*
X124134524Y-65841476D01*
X124039286Y-65889095D01*
X123848810Y-65936714D01*
X123705952Y-65936714D01*
X123515476Y-65889095D01*
X123420238Y-65841476D01*
X123325000Y-65746238D01*
X123277381Y-65603380D01*
X123277381Y-65508142D01*
X123325000Y-65365285D01*
X123372619Y-65317666D01*
X123705952Y-64746238D02*
X123658333Y-64841476D01*
X123610714Y-64889095D01*
X123515476Y-64936714D01*
X123467857Y-64936714D01*
X123372619Y-64889095D01*
X123325000Y-64841476D01*
X123277381Y-64746238D01*
X123277381Y-64555761D01*
X123325000Y-64460523D01*
X123372619Y-64412904D01*
X123467857Y-64365285D01*
X123515476Y-64365285D01*
X123610714Y-64412904D01*
X123658333Y-64460523D01*
X123705952Y-64555761D01*
X123705952Y-64746238D01*
X123753571Y-64841476D01*
X123801190Y-64889095D01*
X123896429Y-64936714D01*
X124086905Y-64936714D01*
X124182143Y-64889095D01*
X124229762Y-64841476D01*
X124277381Y-64746238D01*
X124277381Y-64555761D01*
X124229762Y-64460523D01*
X124182143Y-64412904D01*
X124086905Y-64365285D01*
X123896429Y-64365285D01*
X123801190Y-64412904D01*
X123753571Y-64460523D01*
X123705952Y-64555761D01*
X133294524Y-48442571D02*
X133627858Y-48442571D01*
X133770715Y-48966381D02*
X133294524Y-48966381D01*
X133294524Y-47966381D01*
X133770715Y-47966381D01*
X134723096Y-48966381D02*
X134151667Y-48966381D01*
X134437381Y-48966381D02*
X134437381Y-47966381D01*
X134342143Y-48109238D01*
X134246905Y-48204476D01*
X134151667Y-48252095D01*
X98242381Y-73318666D02*
X97766190Y-73652000D01*
X98242381Y-73890095D02*
X97242381Y-73890095D01*
X97242381Y-73509142D01*
X97290000Y-73413904D01*
X97337619Y-73366285D01*
X97432857Y-73318666D01*
X97575714Y-73318666D01*
X97670952Y-73366285D01*
X97718571Y-73413904D01*
X97766190Y-73509142D01*
X97766190Y-73890095D01*
X98242381Y-72366285D02*
X98242381Y-72937714D01*
X98242381Y-72652000D02*
X97242381Y-72652000D01*
X97385238Y-72747238D01*
X97480476Y-72842476D01*
X97528095Y-72937714D01*
X82891334Y-72842381D02*
X82558000Y-72366190D01*
X82319905Y-72842381D02*
X82319905Y-71842381D01*
X82700858Y-71842381D01*
X82796096Y-71890000D01*
X82843715Y-71937619D01*
X82891334Y-72032857D01*
X82891334Y-72175714D01*
X82843715Y-72270952D01*
X82796096Y-72318571D01*
X82700858Y-72366190D01*
X82319905Y-72366190D01*
X83272286Y-71937619D02*
X83319905Y-71890000D01*
X83415143Y-71842381D01*
X83653239Y-71842381D01*
X83748477Y-71890000D01*
X83796096Y-71937619D01*
X83843715Y-72032857D01*
X83843715Y-72128095D01*
X83796096Y-72270952D01*
X83224667Y-72842381D01*
X83843715Y-72842381D01*
X96337381Y-73445666D02*
X95861190Y-73779000D01*
X96337381Y-74017095D02*
X95337381Y-74017095D01*
X95337381Y-73636142D01*
X95385000Y-73540904D01*
X95432619Y-73493285D01*
X95527857Y-73445666D01*
X95670714Y-73445666D01*
X95765952Y-73493285D01*
X95813571Y-73540904D01*
X95861190Y-73636142D01*
X95861190Y-74017095D01*
X95337381Y-73112333D02*
X95337381Y-72493285D01*
X95718333Y-72826619D01*
X95718333Y-72683761D01*
X95765952Y-72588523D01*
X95813571Y-72540904D01*
X95908810Y-72493285D01*
X96146905Y-72493285D01*
X96242143Y-72540904D01*
X96289762Y-72588523D01*
X96337381Y-72683761D01*
X96337381Y-72969476D01*
X96289762Y-73064714D01*
X96242143Y-73112333D01*
X77176334Y-37917381D02*
X76843000Y-37441190D01*
X76604905Y-37917381D02*
X76604905Y-36917381D01*
X76985858Y-36917381D01*
X77081096Y-36965000D01*
X77128715Y-37012619D01*
X77176334Y-37107857D01*
X77176334Y-37250714D01*
X77128715Y-37345952D01*
X77081096Y-37393571D01*
X76985858Y-37441190D01*
X76604905Y-37441190D01*
X78033477Y-37250714D02*
X78033477Y-37917381D01*
X77795381Y-36869762D02*
X77557286Y-37584048D01*
X78176334Y-37584048D01*
X66000334Y-37917381D02*
X65667000Y-37441190D01*
X65428905Y-37917381D02*
X65428905Y-36917381D01*
X65809858Y-36917381D01*
X65905096Y-36965000D01*
X65952715Y-37012619D01*
X66000334Y-37107857D01*
X66000334Y-37250714D01*
X65952715Y-37345952D01*
X65905096Y-37393571D01*
X65809858Y-37441190D01*
X65428905Y-37441190D01*
X66905096Y-36917381D02*
X66428905Y-36917381D01*
X66381286Y-37393571D01*
X66428905Y-37345952D01*
X66524143Y-37298333D01*
X66762239Y-37298333D01*
X66857477Y-37345952D01*
X66905096Y-37393571D01*
X66952715Y-37488810D01*
X66952715Y-37726905D01*
X66905096Y-37822143D01*
X66857477Y-37869762D01*
X66762239Y-37917381D01*
X66524143Y-37917381D01*
X66428905Y-37869762D01*
X66381286Y-37822143D01*
X81113334Y-46172381D02*
X80780000Y-45696190D01*
X80541905Y-46172381D02*
X80541905Y-45172381D01*
X80922858Y-45172381D01*
X81018096Y-45220000D01*
X81065715Y-45267619D01*
X81113334Y-45362857D01*
X81113334Y-45505714D01*
X81065715Y-45600952D01*
X81018096Y-45648571D01*
X80922858Y-45696190D01*
X80541905Y-45696190D01*
X81970477Y-45172381D02*
X81780000Y-45172381D01*
X81684762Y-45220000D01*
X81637143Y-45267619D01*
X81541905Y-45410476D01*
X81494286Y-45600952D01*
X81494286Y-45981905D01*
X81541905Y-46077143D01*
X81589524Y-46124762D01*
X81684762Y-46172381D01*
X81875239Y-46172381D01*
X81970477Y-46124762D01*
X82018096Y-46077143D01*
X82065715Y-45981905D01*
X82065715Y-45743810D01*
X82018096Y-45648571D01*
X81970477Y-45600952D01*
X81875239Y-45553333D01*
X81684762Y-45553333D01*
X81589524Y-45600952D01*
X81541905Y-45648571D01*
X81494286Y-45743810D01*
X83145334Y-49982381D02*
X82812000Y-49506190D01*
X82573905Y-49982381D02*
X82573905Y-48982381D01*
X82954858Y-48982381D01*
X83050096Y-49030000D01*
X83097715Y-49077619D01*
X83145334Y-49172857D01*
X83145334Y-49315714D01*
X83097715Y-49410952D01*
X83050096Y-49458571D01*
X82954858Y-49506190D01*
X82573905Y-49506190D01*
X83478667Y-48982381D02*
X84145334Y-48982381D01*
X83716762Y-49982381D01*
X93162381Y-42838666D02*
X92686190Y-43172000D01*
X93162381Y-43410095D02*
X92162381Y-43410095D01*
X92162381Y-43029142D01*
X92210000Y-42933904D01*
X92257619Y-42886285D01*
X92352857Y-42838666D01*
X92495714Y-42838666D01*
X92590952Y-42886285D01*
X92638571Y-42933904D01*
X92686190Y-43029142D01*
X92686190Y-43410095D01*
X92590952Y-42267238D02*
X92543333Y-42362476D01*
X92495714Y-42410095D01*
X92400476Y-42457714D01*
X92352857Y-42457714D01*
X92257619Y-42410095D01*
X92210000Y-42362476D01*
X92162381Y-42267238D01*
X92162381Y-42076761D01*
X92210000Y-41981523D01*
X92257619Y-41933904D01*
X92352857Y-41886285D01*
X92400476Y-41886285D01*
X92495714Y-41933904D01*
X92543333Y-41981523D01*
X92590952Y-42076761D01*
X92590952Y-42267238D01*
X92638571Y-42362476D01*
X92686190Y-42410095D01*
X92781429Y-42457714D01*
X92971905Y-42457714D01*
X93067143Y-42410095D01*
X93114762Y-42362476D01*
X93162381Y-42267238D01*
X93162381Y-42076761D01*
X93114762Y-41981523D01*
X93067143Y-41933904D01*
X92971905Y-41886285D01*
X92781429Y-41886285D01*
X92686190Y-41933904D01*
X92638571Y-41981523D01*
X92590952Y-42076761D01*
X90622381Y-41568666D02*
X90146190Y-41902000D01*
X90622381Y-42140095D02*
X89622381Y-42140095D01*
X89622381Y-41759142D01*
X89670000Y-41663904D01*
X89717619Y-41616285D01*
X89812857Y-41568666D01*
X89955714Y-41568666D01*
X90050952Y-41616285D01*
X90098571Y-41663904D01*
X90146190Y-41759142D01*
X90146190Y-42140095D01*
X90622381Y-41092476D02*
X90622381Y-40902000D01*
X90574762Y-40806761D01*
X90527143Y-40759142D01*
X90384286Y-40663904D01*
X90193810Y-40616285D01*
X89812857Y-40616285D01*
X89717619Y-40663904D01*
X89670000Y-40711523D01*
X89622381Y-40806761D01*
X89622381Y-40997238D01*
X89670000Y-41092476D01*
X89717619Y-41140095D01*
X89812857Y-41187714D01*
X90050952Y-41187714D01*
X90146190Y-41140095D01*
X90193810Y-41092476D01*
X90241429Y-40997238D01*
X90241429Y-40806761D01*
X90193810Y-40711523D01*
X90146190Y-40663904D01*
X90050952Y-40616285D01*
X110942381Y-62872857D02*
X110466190Y-63206191D01*
X110942381Y-63444286D02*
X109942381Y-63444286D01*
X109942381Y-63063333D01*
X109990000Y-62968095D01*
X110037619Y-62920476D01*
X110132857Y-62872857D01*
X110275714Y-62872857D01*
X110370952Y-62920476D01*
X110418571Y-62968095D01*
X110466190Y-63063333D01*
X110466190Y-63444286D01*
X110942381Y-61920476D02*
X110942381Y-62491905D01*
X110942381Y-62206191D02*
X109942381Y-62206191D01*
X110085238Y-62301429D01*
X110180476Y-62396667D01*
X110228095Y-62491905D01*
X109942381Y-61301429D02*
X109942381Y-61206190D01*
X109990000Y-61110952D01*
X110037619Y-61063333D01*
X110132857Y-61015714D01*
X110323333Y-60968095D01*
X110561429Y-60968095D01*
X110751905Y-61015714D01*
X110847143Y-61063333D01*
X110894762Y-61110952D01*
X110942381Y-61206190D01*
X110942381Y-61301429D01*
X110894762Y-61396667D01*
X110847143Y-61444286D01*
X110751905Y-61491905D01*
X110561429Y-61539524D01*
X110323333Y-61539524D01*
X110132857Y-61491905D01*
X110037619Y-61444286D01*
X109990000Y-61396667D01*
X109942381Y-61301429D01*
X101417381Y-73286857D02*
X100941190Y-73620191D01*
X101417381Y-73858286D02*
X100417381Y-73858286D01*
X100417381Y-73477333D01*
X100465000Y-73382095D01*
X100512619Y-73334476D01*
X100607857Y-73286857D01*
X100750714Y-73286857D01*
X100845952Y-73334476D01*
X100893571Y-73382095D01*
X100941190Y-73477333D01*
X100941190Y-73858286D01*
X101417381Y-72334476D02*
X101417381Y-72905905D01*
X101417381Y-72620191D02*
X100417381Y-72620191D01*
X100560238Y-72715429D01*
X100655476Y-72810667D01*
X100703095Y-72905905D01*
X101417381Y-71382095D02*
X101417381Y-71953524D01*
X101417381Y-71667810D02*
X100417381Y-71667810D01*
X100560238Y-71763048D01*
X100655476Y-71858286D01*
X100703095Y-71953524D01*
X138882381Y-34551857D02*
X138406190Y-34885191D01*
X138882381Y-35123286D02*
X137882381Y-35123286D01*
X137882381Y-34742333D01*
X137930000Y-34647095D01*
X137977619Y-34599476D01*
X138072857Y-34551857D01*
X138215714Y-34551857D01*
X138310952Y-34599476D01*
X138358571Y-34647095D01*
X138406190Y-34742333D01*
X138406190Y-35123286D01*
X138882381Y-33599476D02*
X138882381Y-34170905D01*
X138882381Y-33885191D02*
X137882381Y-33885191D01*
X138025238Y-33980429D01*
X138120476Y-34075667D01*
X138168095Y-34170905D01*
X137977619Y-33218524D02*
X137930000Y-33170905D01*
X137882381Y-33075667D01*
X137882381Y-32837571D01*
X137930000Y-32742333D01*
X137977619Y-32694714D01*
X138072857Y-32647095D01*
X138168095Y-32647095D01*
X138310952Y-32694714D01*
X138882381Y-33266143D01*
X138882381Y-32647095D01*
X128008143Y-59507381D02*
X127674809Y-59031190D01*
X127436714Y-59507381D02*
X127436714Y-58507381D01*
X127817667Y-58507381D01*
X127912905Y-58555000D01*
X127960524Y-58602619D01*
X128008143Y-58697857D01*
X128008143Y-58840714D01*
X127960524Y-58935952D01*
X127912905Y-58983571D01*
X127817667Y-59031190D01*
X127436714Y-59031190D01*
X128960524Y-59507381D02*
X128389095Y-59507381D01*
X128674809Y-59507381D02*
X128674809Y-58507381D01*
X128579571Y-58650238D01*
X128484333Y-58745476D01*
X128389095Y-58793095D01*
X129293857Y-58507381D02*
X129912905Y-58507381D01*
X129579571Y-58888333D01*
X129722429Y-58888333D01*
X129817667Y-58935952D01*
X129865286Y-58983571D01*
X129912905Y-59078810D01*
X129912905Y-59316905D01*
X129865286Y-59412143D01*
X129817667Y-59459762D01*
X129722429Y-59507381D01*
X129436714Y-59507381D01*
X129341476Y-59459762D01*
X129293857Y-59412143D01*
X70302381Y-62110857D02*
X69826190Y-62444191D01*
X70302381Y-62682286D02*
X69302381Y-62682286D01*
X69302381Y-62301333D01*
X69350000Y-62206095D01*
X69397619Y-62158476D01*
X69492857Y-62110857D01*
X69635714Y-62110857D01*
X69730952Y-62158476D01*
X69778571Y-62206095D01*
X69826190Y-62301333D01*
X69826190Y-62682286D01*
X70302381Y-61158476D02*
X70302381Y-61729905D01*
X70302381Y-61444191D02*
X69302381Y-61444191D01*
X69445238Y-61539429D01*
X69540476Y-61634667D01*
X69588095Y-61729905D01*
X69635714Y-60301333D02*
X70302381Y-60301333D01*
X69254762Y-60539429D02*
X69969048Y-60777524D01*
X69969048Y-60158476D01*
X72238095Y-48452381D02*
X72238095Y-49261905D01*
X72285714Y-49357143D01*
X72333333Y-49404762D01*
X72428571Y-49452381D01*
X72619048Y-49452381D01*
X72714286Y-49404762D01*
X72761905Y-49357143D01*
X72809524Y-49261905D01*
X72809524Y-48452381D01*
X73238095Y-48547619D02*
X73285714Y-48500000D01*
X73380952Y-48452381D01*
X73619048Y-48452381D01*
X73714286Y-48500000D01*
X73761905Y-48547619D01*
X73809524Y-48642857D01*
X73809524Y-48738095D01*
X73761905Y-48880952D01*
X73190476Y-49452381D01*
X73809524Y-49452381D01*
X62190381Y-70659524D02*
X63190381Y-69992857D01*
X62190381Y-69992857D02*
X63190381Y-70659524D01*
X63190381Y-69088095D02*
X63190381Y-69659524D01*
X63190381Y-69373810D02*
X62190381Y-69373810D01*
X62333238Y-69469048D01*
X62428476Y-69564286D01*
X62476095Y-69659524D01*
M02*
