G04 #@! TF.FileFunction,Soldermask,Top*
%FSLAX46Y46*%
G04 Gerber Fmt 4.6, Leading zero omitted, Abs format (unit mm)*
G04 Created by KiCad (PCBNEW (2015-06-16 BZR 5762, Git d3b3131)-product) date 2015.07.11. 4:53:42*
%MOMM*%
G01*
G04 APERTURE LIST*
%ADD10C,0.100000*%
%ADD11C,5.001260*%
%ADD12R,0.750000X1.200000*%
%ADD13R,1.200000X0.750000*%
%ADD14R,2.999740X1.501140*%
%ADD15C,1.700000*%
%ADD16R,2.300000X3.000000*%
%ADD17R,1.727200X1.727200*%
%ADD18O,1.727200X1.727200*%
%ADD19R,1.727200X2.032000*%
%ADD20O,1.727200X2.032000*%
%ADD21R,2.032000X1.727200*%
%ADD22O,2.032000X1.727200*%
%ADD23R,1.700000X1.700000*%
%ADD24R,0.900000X1.200000*%
%ADD25R,1.200000X0.900000*%
%ADD26R,2.500000X2.000000*%
%ADD27R,1.300000X0.250000*%
%ADD28R,0.250000X1.300000*%
%ADD29C,5.000000*%
%ADD30R,2.100580X5.600700*%
G04 APERTURE END LIST*
D10*
D11*
X147000000Y-77000000D03*
D12*
X88011000Y-46670000D03*
X88011000Y-44770000D03*
D13*
X83505000Y-43815000D03*
X85405000Y-43815000D03*
D12*
X69850000Y-70165000D03*
X69850000Y-68265000D03*
X69850000Y-72710000D03*
X69850000Y-74610000D03*
D14*
X104868980Y-69850000D03*
X100871020Y-69850000D03*
D13*
X68895000Y-48260000D03*
X66995000Y-48260000D03*
X73726000Y-45783500D03*
X75626000Y-45783500D03*
D12*
X123825000Y-61280000D03*
X123825000Y-63180000D03*
D15*
X141000000Y-62500000D03*
X138500000Y-62500000D03*
X143500000Y-62500000D03*
X138500000Y-48000000D03*
X143500000Y-48000000D03*
D16*
X136400000Y-55000000D03*
X145600000Y-55000000D03*
D17*
X43180000Y-33655000D03*
D18*
X43180000Y-36195000D03*
X45720000Y-33655000D03*
X45720000Y-36195000D03*
X48260000Y-33655000D03*
X48260000Y-36195000D03*
X50800000Y-33655000D03*
X50800000Y-36195000D03*
X53340000Y-33655000D03*
X53340000Y-36195000D03*
X55880000Y-33655000D03*
X55880000Y-36195000D03*
X58420000Y-33655000D03*
X58420000Y-36195000D03*
X60960000Y-33655000D03*
X60960000Y-36195000D03*
D15*
X71755000Y-33655000D03*
X74295000Y-33655000D03*
X69215000Y-33655000D03*
X90170000Y-76200000D03*
X87630000Y-76200000D03*
X92710000Y-76200000D03*
D19*
X93345000Y-66675000D03*
D20*
X95885000Y-66675000D03*
X98425000Y-66675000D03*
X100965000Y-66675000D03*
X103505000Y-66675000D03*
D15*
X83820000Y-76200000D03*
X81280000Y-76200000D03*
D19*
X55880000Y-41910000D03*
D20*
X58420000Y-41910000D03*
X60960000Y-41910000D03*
D21*
X121920000Y-36195000D03*
D22*
X121920000Y-38735000D03*
X121920000Y-41275000D03*
X121920000Y-43815000D03*
D15*
X80645000Y-33655000D03*
X83185000Y-33655000D03*
X78105000Y-33655000D03*
D17*
X60960000Y-76200000D03*
D18*
X60960000Y-73660000D03*
X58420000Y-76200000D03*
X58420000Y-73660000D03*
X55880000Y-76200000D03*
X55880000Y-73660000D03*
X53340000Y-76200000D03*
X53340000Y-73660000D03*
X50800000Y-76200000D03*
X50800000Y-73660000D03*
X48260000Y-76200000D03*
X48260000Y-73660000D03*
X45720000Y-76200000D03*
X45720000Y-73660000D03*
X43180000Y-76200000D03*
X43180000Y-73660000D03*
D17*
X53975000Y-59055000D03*
D18*
X56515000Y-59055000D03*
X53975000Y-56515000D03*
X56515000Y-56515000D03*
X53975000Y-53975000D03*
X56515000Y-53975000D03*
X53975000Y-51435000D03*
X56515000Y-51435000D03*
X53975000Y-48895000D03*
X56515000Y-48895000D03*
D15*
X74930000Y-76200000D03*
X72390000Y-76200000D03*
X77470000Y-76200000D03*
D19*
X72390000Y-69850000D03*
D20*
X74930000Y-69850000D03*
X77470000Y-69850000D03*
D15*
X89535000Y-33655000D03*
X92075000Y-33655000D03*
X86995000Y-33655000D03*
D23*
X39052500Y-58737500D03*
D15*
X41592500Y-58737500D03*
D23*
X39052500Y-56197500D03*
D15*
X41592500Y-56197500D03*
D23*
X39052500Y-53657500D03*
D15*
X41592500Y-53657500D03*
D23*
X39052500Y-51117500D03*
D15*
X41592500Y-51117500D03*
D21*
X120650000Y-61595000D03*
D22*
X120650000Y-59055000D03*
X120650000Y-56515000D03*
D24*
X97790000Y-77300000D03*
X97790000Y-75100000D03*
D25*
X81110000Y-72390000D03*
X78910000Y-72390000D03*
D24*
X95885000Y-77300000D03*
X95885000Y-75100000D03*
D25*
X75395000Y-37465000D03*
X73195000Y-37465000D03*
X68115000Y-37465000D03*
X70315000Y-37465000D03*
X83355000Y-45720000D03*
X85555000Y-45720000D03*
X85260000Y-49530000D03*
X87460000Y-49530000D03*
D24*
X92710000Y-44620000D03*
X92710000Y-46820000D03*
X90170000Y-43350000D03*
X90170000Y-45550000D03*
D26*
X110490000Y-59150000D03*
X110490000Y-55150000D03*
D24*
X100965000Y-77300000D03*
X100965000Y-75100000D03*
X138430000Y-36365000D03*
X138430000Y-38565000D03*
D25*
X126195000Y-59055000D03*
X123995000Y-59055000D03*
D24*
X69850000Y-65870000D03*
X69850000Y-63670000D03*
D27*
X68650000Y-52250000D03*
X68650000Y-52750000D03*
X68650000Y-53250000D03*
X68650000Y-53750000D03*
X68650000Y-54250000D03*
X68650000Y-54750000D03*
X68650000Y-55250000D03*
X68650000Y-55750000D03*
X68650000Y-56250000D03*
X68650000Y-56750000D03*
X68650000Y-57250000D03*
X68650000Y-57750000D03*
D28*
X70250000Y-59350000D03*
X70750000Y-59350000D03*
X71250000Y-59350000D03*
X71750000Y-59350000D03*
X72250000Y-59350000D03*
X72750000Y-59350000D03*
X73250000Y-59350000D03*
X73750000Y-59350000D03*
X74250000Y-59350000D03*
X74750000Y-59350000D03*
X75250000Y-59350000D03*
X75750000Y-59350000D03*
D27*
X77350000Y-57750000D03*
X77350000Y-57250000D03*
X77350000Y-56750000D03*
X77350000Y-56250000D03*
X77350000Y-55750000D03*
X77350000Y-55250000D03*
X77350000Y-54750000D03*
X77350000Y-54250000D03*
X77350000Y-53750000D03*
X77350000Y-53250000D03*
X77350000Y-52750000D03*
X77350000Y-52250000D03*
D28*
X75750000Y-50650000D03*
X75250000Y-50650000D03*
X74750000Y-50650000D03*
X74250000Y-50650000D03*
X73750000Y-50650000D03*
X73250000Y-50650000D03*
X72750000Y-50650000D03*
X72250000Y-50650000D03*
X71750000Y-50650000D03*
X71250000Y-50650000D03*
X70750000Y-50650000D03*
X70250000Y-50650000D03*
D29*
X33000000Y-77000000D03*
X33000000Y-33000000D03*
X109080000Y-33000000D03*
X109080000Y-77000000D03*
D15*
X114000000Y-71510000D03*
X114000000Y-68970000D03*
X114000000Y-66430000D03*
X114000000Y-63890000D03*
X114000000Y-61350000D03*
X114000000Y-58810000D03*
X114000000Y-56270000D03*
X114000000Y-53730000D03*
X114000000Y-51190000D03*
X114000000Y-48650000D03*
X114000000Y-46110000D03*
X114000000Y-43570000D03*
X114000000Y-41030000D03*
X114000000Y-38490000D03*
X32720000Y-56270000D03*
X32720000Y-58810000D03*
X32720000Y-53730000D03*
X32720000Y-51190000D03*
D30*
X66040000Y-74698860D03*
X66040000Y-65001140D03*
D11*
X147000000Y-33000000D03*
M02*
