G04 #@! TF.FileFunction,Legend,Bot*
%FSLAX46Y46*%
G04 Gerber Fmt 4.6, Leading zero omitted, Abs format (unit mm)*
G04 Created by KiCad (PCBNEW (2015-06-16 BZR 5762, Git d3b3131)-product) date 2015.07.06. 6:50:41*
%MOMM*%
G01*
G04 APERTURE LIST*
%ADD10C,0.100000*%
%ADD11C,0.200000*%
%ADD12C,0.150000*%
G04 APERTURE END LIST*
D10*
D11*
X150000000Y-30000000D02*
X120000000Y-30000000D01*
X150000000Y-50000000D02*
X150000000Y-30000000D01*
X120000000Y-50000000D02*
X150000000Y-50000000D01*
X120000000Y-30000000D02*
X120000000Y-50000000D01*
D12*
X62230000Y-37465000D02*
X41910000Y-37465000D01*
X44450000Y-32385000D02*
X62230000Y-32385000D01*
X62230000Y-37465000D02*
X62230000Y-32385000D01*
X41910000Y-37465000D02*
X41910000Y-34925000D01*
X41630000Y-33655000D02*
X41630000Y-32105000D01*
X41910000Y-34925000D02*
X44450000Y-34925000D01*
X44450000Y-34925000D02*
X44450000Y-32385000D01*
X41630000Y-32105000D02*
X43180000Y-32105000D01*
X74255000Y-35655000D02*
X69255000Y-35655000D01*
X74255000Y-36255000D02*
X74255000Y-35655000D01*
X69255000Y-36255000D02*
X69255000Y-35655000D01*
X75605000Y-36255000D02*
X75605000Y-30455000D01*
X67905000Y-36255000D02*
X75605000Y-36255000D01*
X67905000Y-30455000D02*
X67905000Y-36255000D01*
X67905000Y-30455000D02*
X75605000Y-30455000D01*
X87670000Y-74200000D02*
X92670000Y-74200000D01*
X87670000Y-73600000D02*
X87670000Y-74200000D01*
X92670000Y-73600000D02*
X92670000Y-74200000D01*
X86320000Y-73600000D02*
X86320000Y-79400000D01*
X94020000Y-73600000D02*
X86320000Y-73600000D01*
X94020000Y-79400000D02*
X94020000Y-73600000D01*
X94020000Y-79400000D02*
X86320000Y-79400000D01*
X93345000Y-65125000D02*
X91795000Y-65125000D01*
X91795000Y-65125000D02*
X91795000Y-68225000D01*
X91795000Y-68225000D02*
X93345000Y-68225000D01*
X94615000Y-67945000D02*
X104775000Y-67945000D01*
X104775000Y-67945000D02*
X104775000Y-65405000D01*
X104775000Y-65405000D02*
X94615000Y-65405000D01*
X94615000Y-67945000D02*
X94615000Y-65405000D01*
X83800000Y-73600000D02*
X83800000Y-74200000D01*
X83800000Y-74200000D02*
X81300000Y-74200000D01*
X81300000Y-74200000D02*
X81300000Y-73600000D01*
X85100000Y-73600000D02*
X80000000Y-73600000D01*
X80000000Y-73600000D02*
X80000000Y-79400000D01*
X80000000Y-79400000D02*
X85100000Y-79400000D01*
X85100000Y-79400000D02*
X85100000Y-73600000D01*
X57150000Y-40640000D02*
X62230000Y-40640000D01*
X62230000Y-40640000D02*
X62230000Y-43180000D01*
X62230000Y-43180000D02*
X57150000Y-43180000D01*
X54330000Y-43460000D02*
X55880000Y-43460000D01*
X57150000Y-43180000D02*
X57150000Y-40640000D01*
X55880000Y-40360000D02*
X54330000Y-40360000D01*
X54330000Y-40360000D02*
X54330000Y-43460000D01*
X123190000Y-37465000D02*
X123190000Y-45085000D01*
X120650000Y-37465000D02*
X120650000Y-45085000D01*
X120370000Y-34645000D02*
X120370000Y-36195000D01*
X123190000Y-45085000D02*
X120650000Y-45085000D01*
X120650000Y-37465000D02*
X123190000Y-37465000D01*
X123470000Y-36195000D02*
X123470000Y-34645000D01*
X123470000Y-34645000D02*
X120370000Y-34645000D01*
X83145000Y-35655000D02*
X78145000Y-35655000D01*
X83145000Y-36255000D02*
X83145000Y-35655000D01*
X78145000Y-36255000D02*
X78145000Y-35655000D01*
X84495000Y-36255000D02*
X84495000Y-30455000D01*
X76795000Y-36255000D02*
X84495000Y-36255000D01*
X76795000Y-30455000D02*
X76795000Y-36255000D01*
X76795000Y-30455000D02*
X84495000Y-30455000D01*
X41910000Y-72390000D02*
X62230000Y-72390000D01*
X59690000Y-77470000D02*
X41910000Y-77470000D01*
X41910000Y-72390000D02*
X41910000Y-77470000D01*
X62230000Y-72390000D02*
X62230000Y-74930000D01*
X62510000Y-76200000D02*
X62510000Y-77750000D01*
X62230000Y-74930000D02*
X59690000Y-74930000D01*
X59690000Y-74930000D02*
X59690000Y-77470000D01*
X62510000Y-77750000D02*
X60960000Y-77750000D01*
X57785000Y-60325000D02*
X57785000Y-47625000D01*
X57785000Y-47625000D02*
X52705000Y-47625000D01*
X52705000Y-47625000D02*
X52705000Y-57785000D01*
X57785000Y-60325000D02*
X55245000Y-60325000D01*
X53975000Y-60605000D02*
X52425000Y-60605000D01*
X55245000Y-60325000D02*
X55245000Y-57785000D01*
X55245000Y-57785000D02*
X52705000Y-57785000D01*
X52425000Y-60605000D02*
X52425000Y-59055000D01*
X72430000Y-74200000D02*
X77430000Y-74200000D01*
X72430000Y-73600000D02*
X72430000Y-74200000D01*
X77430000Y-73600000D02*
X77430000Y-74200000D01*
X71080000Y-73600000D02*
X71080000Y-79400000D01*
X78780000Y-73600000D02*
X71080000Y-73600000D01*
X78780000Y-79400000D02*
X78780000Y-73600000D01*
X78780000Y-79400000D02*
X71080000Y-79400000D01*
X73660000Y-68580000D02*
X78740000Y-68580000D01*
X78740000Y-68580000D02*
X78740000Y-71120000D01*
X78740000Y-71120000D02*
X73660000Y-71120000D01*
X70840000Y-71400000D02*
X72390000Y-71400000D01*
X73660000Y-71120000D02*
X73660000Y-68580000D01*
X72390000Y-68300000D02*
X70840000Y-68300000D01*
X70840000Y-68300000D02*
X70840000Y-71400000D01*
X92035000Y-35655000D02*
X87035000Y-35655000D01*
X92035000Y-36255000D02*
X92035000Y-35655000D01*
X87035000Y-36255000D02*
X87035000Y-35655000D01*
X93385000Y-36255000D02*
X93385000Y-30455000D01*
X85685000Y-36255000D02*
X93385000Y-36255000D01*
X85685000Y-30455000D02*
X85685000Y-36255000D01*
X85685000Y-30455000D02*
X93385000Y-30455000D01*
X40322500Y-60007500D02*
X42862500Y-60007500D01*
X37502500Y-60287500D02*
X39052500Y-60287500D01*
X40322500Y-60007500D02*
X40322500Y-57467500D01*
X39052500Y-57187500D02*
X37502500Y-57187500D01*
X37502500Y-57187500D02*
X37502500Y-60287500D01*
X40322500Y-57467500D02*
X42862500Y-57467500D01*
X42862500Y-57467500D02*
X42862500Y-60007500D01*
X40322500Y-57467500D02*
X42862500Y-57467500D01*
X37502500Y-57747500D02*
X39052500Y-57747500D01*
X40322500Y-57467500D02*
X40322500Y-54927500D01*
X39052500Y-54647500D02*
X37502500Y-54647500D01*
X37502500Y-54647500D02*
X37502500Y-57747500D01*
X40322500Y-54927500D02*
X42862500Y-54927500D01*
X42862500Y-54927500D02*
X42862500Y-57467500D01*
X40322500Y-54927500D02*
X42862500Y-54927500D01*
X37502500Y-55207500D02*
X39052500Y-55207500D01*
X40322500Y-54927500D02*
X40322500Y-52387500D01*
X39052500Y-52107500D02*
X37502500Y-52107500D01*
X37502500Y-52107500D02*
X37502500Y-55207500D01*
X40322500Y-52387500D02*
X42862500Y-52387500D01*
X42862500Y-52387500D02*
X42862500Y-54927500D01*
X40322500Y-52387500D02*
X42862500Y-52387500D01*
X37502500Y-52667500D02*
X39052500Y-52667500D01*
X40322500Y-52387500D02*
X40322500Y-49847500D01*
X39052500Y-49567500D02*
X37502500Y-49567500D01*
X37502500Y-49567500D02*
X37502500Y-52667500D01*
X40322500Y-49847500D02*
X42862500Y-49847500D01*
X42862500Y-49847500D02*
X42862500Y-52387500D01*
X119380000Y-60325000D02*
X119380000Y-55245000D01*
X119380000Y-55245000D02*
X121920000Y-55245000D01*
X121920000Y-55245000D02*
X121920000Y-60325000D01*
X122200000Y-63145000D02*
X122200000Y-61595000D01*
X121920000Y-60325000D02*
X119380000Y-60325000D01*
X119100000Y-61595000D02*
X119100000Y-63145000D01*
X119100000Y-63145000D02*
X122200000Y-63145000D01*
X62055333Y-38441381D02*
X62055333Y-39155667D01*
X62102953Y-39298524D01*
X62198191Y-39393762D01*
X62341048Y-39441381D01*
X62436286Y-39441381D01*
X61055333Y-39441381D02*
X61626762Y-39441381D01*
X61341048Y-39441381D02*
X61341048Y-38441381D01*
X61436286Y-38584238D01*
X61531524Y-38679476D01*
X61626762Y-38727095D01*
X75263333Y-36790381D02*
X75263333Y-37504667D01*
X75310953Y-37647524D01*
X75406191Y-37742762D01*
X75549048Y-37790381D01*
X75644286Y-37790381D01*
X74834762Y-36885619D02*
X74787143Y-36838000D01*
X74691905Y-36790381D01*
X74453809Y-36790381D01*
X74358571Y-36838000D01*
X74310952Y-36885619D01*
X74263333Y-36980857D01*
X74263333Y-37076095D01*
X74310952Y-37218952D01*
X74882381Y-37790381D01*
X74263333Y-37790381D01*
X71659524Y-37790381D02*
X71659524Y-36790381D01*
X71326190Y-37504667D01*
X70992857Y-36790381D01*
X70992857Y-37790381D01*
X70326191Y-36790381D02*
X70135714Y-36790381D01*
X70040476Y-36838000D01*
X69945238Y-36933238D01*
X69897619Y-37123714D01*
X69897619Y-37457048D01*
X69945238Y-37647524D01*
X70040476Y-37742762D01*
X70135714Y-37790381D01*
X70326191Y-37790381D01*
X70421429Y-37742762D01*
X70516667Y-37647524D01*
X70564286Y-37457048D01*
X70564286Y-37123714D01*
X70516667Y-36933238D01*
X70421429Y-36838000D01*
X70326191Y-36790381D01*
X69469048Y-37790381D02*
X69469048Y-36790381D01*
X69230953Y-36790381D01*
X69088095Y-36838000D01*
X68992857Y-36933238D01*
X68945238Y-37028476D01*
X68897619Y-37218952D01*
X68897619Y-37361810D01*
X68945238Y-37552286D01*
X68992857Y-37647524D01*
X69088095Y-37742762D01*
X69230953Y-37790381D01*
X69469048Y-37790381D01*
X68469048Y-37266571D02*
X68135714Y-37266571D01*
X67992857Y-37790381D02*
X68469048Y-37790381D01*
X68469048Y-36790381D01*
X67992857Y-36790381D01*
X93424333Y-72223381D02*
X93424333Y-72937667D01*
X93471953Y-73080524D01*
X93567191Y-73175762D01*
X93710048Y-73223381D01*
X93805286Y-73223381D01*
X93043381Y-72223381D02*
X92424333Y-72223381D01*
X92757667Y-72604333D01*
X92614809Y-72604333D01*
X92519571Y-72651952D01*
X92471952Y-72699571D01*
X92424333Y-72794810D01*
X92424333Y-73032905D01*
X92471952Y-73128143D01*
X92519571Y-73175762D01*
X92614809Y-73223381D01*
X92900524Y-73223381D01*
X92995762Y-73175762D01*
X93043381Y-73128143D01*
X88352190Y-73223381D02*
X88352190Y-72223381D01*
X87923619Y-72318619D02*
X87876000Y-72271000D01*
X87780762Y-72223381D01*
X87542666Y-72223381D01*
X87447428Y-72271000D01*
X87399809Y-72318619D01*
X87352190Y-72413857D01*
X87352190Y-72509095D01*
X87399809Y-72651952D01*
X87971238Y-73223381D01*
X87352190Y-73223381D01*
X86352190Y-73128143D02*
X86399809Y-73175762D01*
X86542666Y-73223381D01*
X86637904Y-73223381D01*
X86780762Y-73175762D01*
X86876000Y-73080524D01*
X86923619Y-72985286D01*
X86971238Y-72794810D01*
X86971238Y-72651952D01*
X86923619Y-72461476D01*
X86876000Y-72366238D01*
X86780762Y-72271000D01*
X86637904Y-72223381D01*
X86542666Y-72223381D01*
X86399809Y-72271000D01*
X86352190Y-72318619D01*
X104600333Y-63587381D02*
X104600333Y-64301667D01*
X104647953Y-64444524D01*
X104743191Y-64539762D01*
X104886048Y-64587381D01*
X104981286Y-64587381D01*
X103695571Y-63920714D02*
X103695571Y-64587381D01*
X103933667Y-63539762D02*
X104171762Y-64254048D01*
X103552714Y-64254048D01*
X84407333Y-72223381D02*
X84407333Y-72937667D01*
X84454953Y-73080524D01*
X84550191Y-73175762D01*
X84693048Y-73223381D01*
X84788286Y-73223381D01*
X83454952Y-72223381D02*
X83931143Y-72223381D01*
X83978762Y-72699571D01*
X83931143Y-72651952D01*
X83835905Y-72604333D01*
X83597809Y-72604333D01*
X83502571Y-72651952D01*
X83454952Y-72699571D01*
X83407333Y-72794810D01*
X83407333Y-73032905D01*
X83454952Y-73128143D01*
X83502571Y-73175762D01*
X83597809Y-73223381D01*
X83835905Y-73223381D01*
X83931143Y-73175762D01*
X83978762Y-73128143D01*
X81549809Y-73128143D02*
X81597428Y-73175762D01*
X81740285Y-73223381D01*
X81835523Y-73223381D01*
X81978381Y-73175762D01*
X82073619Y-73080524D01*
X82121238Y-72985286D01*
X82168857Y-72794810D01*
X82168857Y-72651952D01*
X82121238Y-72461476D01*
X82073619Y-72366238D01*
X81978381Y-72271000D01*
X81835523Y-72223381D01*
X81740285Y-72223381D01*
X81597428Y-72271000D01*
X81549809Y-72318619D01*
X81168857Y-72937667D02*
X80692666Y-72937667D01*
X81264095Y-73223381D02*
X80930762Y-72223381D01*
X80597428Y-73223381D01*
X79787904Y-73223381D02*
X80264095Y-73223381D01*
X80264095Y-72223381D01*
X64087333Y-41362381D02*
X64087333Y-42076667D01*
X64134953Y-42219524D01*
X64230191Y-42314762D01*
X64373048Y-42362381D01*
X64468286Y-42362381D01*
X63182571Y-41362381D02*
X63373048Y-41362381D01*
X63468286Y-41410000D01*
X63515905Y-41457619D01*
X63611143Y-41600476D01*
X63658762Y-41790952D01*
X63658762Y-42171905D01*
X63611143Y-42267143D01*
X63563524Y-42314762D01*
X63468286Y-42362381D01*
X63277809Y-42362381D01*
X63182571Y-42314762D01*
X63134952Y-42267143D01*
X63087333Y-42171905D01*
X63087333Y-41933810D01*
X63134952Y-41838571D01*
X63182571Y-41790952D01*
X63277809Y-41743333D01*
X63468286Y-41743333D01*
X63563524Y-41790952D01*
X63611143Y-41838571D01*
X63658762Y-41933810D01*
X124039381Y-35099667D02*
X124753667Y-35099667D01*
X124896524Y-35052047D01*
X124991762Y-34956809D01*
X125039381Y-34813952D01*
X125039381Y-34718714D01*
X124039381Y-35480619D02*
X124039381Y-36147286D01*
X125039381Y-35718714D01*
X83899333Y-36663381D02*
X83899333Y-37377667D01*
X83946953Y-37520524D01*
X84042191Y-37615762D01*
X84185048Y-37663381D01*
X84280286Y-37663381D01*
X83280286Y-37091952D02*
X83375524Y-37044333D01*
X83423143Y-36996714D01*
X83470762Y-36901476D01*
X83470762Y-36853857D01*
X83423143Y-36758619D01*
X83375524Y-36711000D01*
X83280286Y-36663381D01*
X83089809Y-36663381D01*
X82994571Y-36711000D01*
X82946952Y-36758619D01*
X82899333Y-36853857D01*
X82899333Y-36901476D01*
X82946952Y-36996714D01*
X82994571Y-37044333D01*
X83089809Y-37091952D01*
X83280286Y-37091952D01*
X83375524Y-37139571D01*
X83423143Y-37187190D01*
X83470762Y-37282429D01*
X83470762Y-37472905D01*
X83423143Y-37568143D01*
X83375524Y-37615762D01*
X83280286Y-37663381D01*
X83089809Y-37663381D01*
X82994571Y-37615762D01*
X82946952Y-37568143D01*
X82899333Y-37472905D01*
X82899333Y-37282429D01*
X82946952Y-37187190D01*
X82994571Y-37139571D01*
X83089809Y-37091952D01*
X81176524Y-37615762D02*
X81033667Y-37663381D01*
X80795571Y-37663381D01*
X80700333Y-37615762D01*
X80652714Y-37568143D01*
X80605095Y-37472905D01*
X80605095Y-37377667D01*
X80652714Y-37282429D01*
X80700333Y-37234810D01*
X80795571Y-37187190D01*
X80986048Y-37139571D01*
X81081286Y-37091952D01*
X81128905Y-37044333D01*
X81176524Y-36949095D01*
X81176524Y-36853857D01*
X81128905Y-36758619D01*
X81081286Y-36711000D01*
X80986048Y-36663381D01*
X80747952Y-36663381D01*
X80605095Y-36711000D01*
X80176524Y-37139571D02*
X79843190Y-37139571D01*
X79700333Y-37663381D02*
X80176524Y-37663381D01*
X80176524Y-36663381D01*
X79700333Y-36663381D01*
X78700333Y-37663381D02*
X79033667Y-37187190D01*
X79271762Y-37663381D02*
X79271762Y-36663381D01*
X78890809Y-36663381D01*
X78795571Y-36711000D01*
X78747952Y-36758619D01*
X78700333Y-36853857D01*
X78700333Y-36996714D01*
X78747952Y-37091952D01*
X78795571Y-37139571D01*
X78890809Y-37187190D01*
X79271762Y-37187190D01*
X78271762Y-37663381D02*
X78271762Y-36663381D01*
X77843191Y-37377667D02*
X77367000Y-37377667D01*
X77938429Y-37663381D02*
X77605096Y-36663381D01*
X77271762Y-37663381D01*
X76462238Y-37663381D02*
X76938429Y-37663381D01*
X76938429Y-36663381D01*
X61928333Y-70572381D02*
X61928333Y-71286667D01*
X61975953Y-71429524D01*
X62071191Y-71524762D01*
X62214048Y-71572381D01*
X62309286Y-71572381D01*
X61404524Y-71572381D02*
X61214048Y-71572381D01*
X61118809Y-71524762D01*
X61071190Y-71477143D01*
X60975952Y-71334286D01*
X60928333Y-71143810D01*
X60928333Y-70762857D01*
X60975952Y-70667619D01*
X61023571Y-70620000D01*
X61118809Y-70572381D01*
X61309286Y-70572381D01*
X61404524Y-70620000D01*
X61452143Y-70667619D01*
X61499762Y-70762857D01*
X61499762Y-71000952D01*
X61452143Y-71096190D01*
X61404524Y-71143810D01*
X61309286Y-71191429D01*
X61118809Y-71191429D01*
X61023571Y-71143810D01*
X60975952Y-71096190D01*
X60928333Y-71000952D01*
X58086523Y-61301381D02*
X58086523Y-62015667D01*
X58134143Y-62158524D01*
X58229381Y-62253762D01*
X58372238Y-62301381D01*
X58467476Y-62301381D01*
X57086523Y-62301381D02*
X57657952Y-62301381D01*
X57372238Y-62301381D02*
X57372238Y-61301381D01*
X57467476Y-61444238D01*
X57562714Y-61539476D01*
X57657952Y-61587095D01*
X56467476Y-61301381D02*
X56372237Y-61301381D01*
X56276999Y-61349000D01*
X56229380Y-61396619D01*
X56181761Y-61491857D01*
X56134142Y-61682333D01*
X56134142Y-61920429D01*
X56181761Y-62110905D01*
X56229380Y-62206143D01*
X56276999Y-62253762D01*
X56372237Y-62301381D01*
X56467476Y-62301381D01*
X56562714Y-62253762D01*
X56610333Y-62206143D01*
X56657952Y-62110905D01*
X56705571Y-61920429D01*
X56705571Y-61682333D01*
X56657952Y-61491857D01*
X56610333Y-61396619D01*
X56562714Y-61349000D01*
X56467476Y-61301381D01*
X78406523Y-72223381D02*
X78406523Y-72937667D01*
X78454143Y-73080524D01*
X78549381Y-73175762D01*
X78692238Y-73223381D01*
X78787476Y-73223381D01*
X77406523Y-73223381D02*
X77977952Y-73223381D01*
X77692238Y-73223381D02*
X77692238Y-72223381D01*
X77787476Y-72366238D01*
X77882714Y-72461476D01*
X77977952Y-72509095D01*
X76454142Y-73223381D02*
X77025571Y-73223381D01*
X76739857Y-73223381D02*
X76739857Y-72223381D01*
X76835095Y-72366238D01*
X76930333Y-72461476D01*
X77025571Y-72509095D01*
X75485238Y-72699571D02*
X75151904Y-72699571D01*
X75009047Y-73223381D02*
X75485238Y-73223381D01*
X75485238Y-72223381D01*
X75009047Y-72223381D01*
X74675714Y-72223381D02*
X74009047Y-73223381D01*
X74009047Y-72223381D02*
X74675714Y-73223381D01*
X73770952Y-72223381D02*
X73199523Y-72223381D01*
X73485238Y-73223381D02*
X73485238Y-72223381D01*
X73104285Y-73318619D02*
X72342380Y-73318619D01*
X72104285Y-73223381D02*
X72104285Y-72223381D01*
X71723332Y-72223381D01*
X71628094Y-72271000D01*
X71580475Y-72318619D01*
X71532856Y-72413857D01*
X71532856Y-72556714D01*
X71580475Y-72651952D01*
X71628094Y-72699571D01*
X71723332Y-72747190D01*
X72104285Y-72747190D01*
X71199523Y-72223381D02*
X70961428Y-73223381D01*
X70770951Y-72509095D01*
X70580475Y-73223381D01*
X70342380Y-72223381D01*
X69961428Y-73223381D02*
X69961428Y-72223381D01*
X69628094Y-72937667D01*
X69294761Y-72223381D01*
X69294761Y-73223381D01*
X78660523Y-66762381D02*
X78660523Y-67476667D01*
X78708143Y-67619524D01*
X78803381Y-67714762D01*
X78946238Y-67762381D01*
X79041476Y-67762381D01*
X77660523Y-67762381D02*
X78231952Y-67762381D01*
X77946238Y-67762381D02*
X77946238Y-66762381D01*
X78041476Y-66905238D01*
X78136714Y-67000476D01*
X78231952Y-67048095D01*
X77279571Y-66857619D02*
X77231952Y-66810000D01*
X77136714Y-66762381D01*
X76898618Y-66762381D01*
X76803380Y-66810000D01*
X76755761Y-66857619D01*
X76708142Y-66952857D01*
X76708142Y-67048095D01*
X76755761Y-67190952D01*
X77327190Y-67762381D01*
X76708142Y-67762381D01*
X93265523Y-36663381D02*
X93265523Y-37377667D01*
X93313143Y-37520524D01*
X93408381Y-37615762D01*
X93551238Y-37663381D01*
X93646476Y-37663381D01*
X92265523Y-37663381D02*
X92836952Y-37663381D01*
X92551238Y-37663381D02*
X92551238Y-36663381D01*
X92646476Y-36806238D01*
X92741714Y-36901476D01*
X92836952Y-36949095D01*
X91932190Y-36663381D02*
X91313142Y-36663381D01*
X91646476Y-37044333D01*
X91503618Y-37044333D01*
X91408380Y-37091952D01*
X91360761Y-37139571D01*
X91313142Y-37234810D01*
X91313142Y-37472905D01*
X91360761Y-37568143D01*
X91408380Y-37615762D01*
X91503618Y-37663381D01*
X91789333Y-37663381D01*
X91884571Y-37615762D01*
X91932190Y-37568143D01*
X88764904Y-37663381D02*
X89336333Y-37663381D01*
X89050619Y-37663381D02*
X89050619Y-36663381D01*
X89145857Y-36806238D01*
X89241095Y-36901476D01*
X89336333Y-36949095D01*
X88431571Y-36663381D02*
X88193476Y-37663381D01*
X88002999Y-36949095D01*
X87812523Y-37663381D01*
X87574428Y-36663381D01*
X87193476Y-37663381D02*
X87193476Y-36996714D01*
X87193476Y-36663381D02*
X87241095Y-36711000D01*
X87193476Y-36758619D01*
X87145857Y-36711000D01*
X87193476Y-36663381D01*
X87193476Y-36758619D01*
X86717286Y-37663381D02*
X86717286Y-36996714D01*
X86717286Y-37187190D02*
X86669667Y-37091952D01*
X86622048Y-37044333D01*
X86526810Y-36996714D01*
X86431571Y-36996714D01*
X85717285Y-37615762D02*
X85812523Y-37663381D01*
X86003000Y-37663381D01*
X86098238Y-37615762D01*
X86145857Y-37520524D01*
X86145857Y-37139571D01*
X86098238Y-37044333D01*
X86003000Y-36996714D01*
X85812523Y-36996714D01*
X85717285Y-37044333D01*
X85669666Y-37139571D01*
X85669666Y-37234810D01*
X86145857Y-37330048D01*
X45894523Y-58253381D02*
X45894523Y-58967667D01*
X45942143Y-59110524D01*
X46037381Y-59205762D01*
X46180238Y-59253381D01*
X46275476Y-59253381D01*
X44894523Y-59253381D02*
X45465952Y-59253381D01*
X45180238Y-59253381D02*
X45180238Y-58253381D01*
X45275476Y-58396238D01*
X45370714Y-58491476D01*
X45465952Y-58539095D01*
X44037380Y-58586714D02*
X44037380Y-59253381D01*
X44275476Y-58205762D02*
X44513571Y-58920048D01*
X43894523Y-58920048D01*
X45894523Y-55586381D02*
X45894523Y-56300667D01*
X45942143Y-56443524D01*
X46037381Y-56538762D01*
X46180238Y-56586381D01*
X46275476Y-56586381D01*
X44894523Y-56586381D02*
X45465952Y-56586381D01*
X45180238Y-56586381D02*
X45180238Y-55586381D01*
X45275476Y-55729238D01*
X45370714Y-55824476D01*
X45465952Y-55872095D01*
X43989761Y-55586381D02*
X44465952Y-55586381D01*
X44513571Y-56062571D01*
X44465952Y-56014952D01*
X44370714Y-55967333D01*
X44132618Y-55967333D01*
X44037380Y-56014952D01*
X43989761Y-56062571D01*
X43942142Y-56157810D01*
X43942142Y-56395905D01*
X43989761Y-56491143D01*
X44037380Y-56538762D01*
X44132618Y-56586381D01*
X44370714Y-56586381D01*
X44465952Y-56538762D01*
X44513571Y-56491143D01*
X45894523Y-53173381D02*
X45894523Y-53887667D01*
X45942143Y-54030524D01*
X46037381Y-54125762D01*
X46180238Y-54173381D01*
X46275476Y-54173381D01*
X44894523Y-54173381D02*
X45465952Y-54173381D01*
X45180238Y-54173381D02*
X45180238Y-53173381D01*
X45275476Y-53316238D01*
X45370714Y-53411476D01*
X45465952Y-53459095D01*
X44037380Y-53173381D02*
X44227857Y-53173381D01*
X44323095Y-53221000D01*
X44370714Y-53268619D01*
X44465952Y-53411476D01*
X44513571Y-53601952D01*
X44513571Y-53982905D01*
X44465952Y-54078143D01*
X44418333Y-54125762D01*
X44323095Y-54173381D01*
X44132618Y-54173381D01*
X44037380Y-54125762D01*
X43989761Y-54078143D01*
X43942142Y-53982905D01*
X43942142Y-53744810D01*
X43989761Y-53649571D01*
X44037380Y-53601952D01*
X44132618Y-53554333D01*
X44323095Y-53554333D01*
X44418333Y-53601952D01*
X44465952Y-53649571D01*
X44513571Y-53744810D01*
X45767523Y-50633381D02*
X45767523Y-51347667D01*
X45815143Y-51490524D01*
X45910381Y-51585762D01*
X46053238Y-51633381D01*
X46148476Y-51633381D01*
X44767523Y-51633381D02*
X45338952Y-51633381D01*
X45053238Y-51633381D02*
X45053238Y-50633381D01*
X45148476Y-50776238D01*
X45243714Y-50871476D01*
X45338952Y-50919095D01*
X44434190Y-50633381D02*
X43767523Y-50633381D01*
X44196095Y-51633381D01*
X120102381Y-64087477D02*
X120816667Y-64087477D01*
X120959524Y-64039857D01*
X121054762Y-63944619D01*
X121102381Y-63801762D01*
X121102381Y-63706524D01*
X121102381Y-65087477D02*
X121102381Y-64516048D01*
X121102381Y-64801762D02*
X120102381Y-64801762D01*
X120245238Y-64706524D01*
X120340476Y-64611286D01*
X120388095Y-64516048D01*
X120530952Y-65658905D02*
X120483333Y-65563667D01*
X120435714Y-65516048D01*
X120340476Y-65468429D01*
X120292857Y-65468429D01*
X120197619Y-65516048D01*
X120150000Y-65563667D01*
X120102381Y-65658905D01*
X120102381Y-65849382D01*
X120150000Y-65944620D01*
X120197619Y-65992239D01*
X120292857Y-66039858D01*
X120340476Y-66039858D01*
X120435714Y-65992239D01*
X120483333Y-65944620D01*
X120530952Y-65849382D01*
X120530952Y-65658905D01*
X120578571Y-65563667D01*
X120626190Y-65516048D01*
X120721429Y-65468429D01*
X120911905Y-65468429D01*
X121007143Y-65516048D01*
X121054762Y-65563667D01*
X121102381Y-65658905D01*
X121102381Y-65849382D01*
X121054762Y-65944620D01*
X121007143Y-65992239D01*
X120911905Y-66039858D01*
X120721429Y-66039858D01*
X120626190Y-65992239D01*
X120578571Y-65944620D01*
X120530952Y-65849382D01*
M02*
