M48
;DRILL file {KiCad (2015-06-16 BZR 5762, Git d3b3131)-product} date 2015.07.11. 4:53:47
;FORMAT={-:-/ absolute / inch / decimal}
FMAT,2
INCH,TZ
T1C0.016
T2C0.039
T3C0.040
T4C0.047
T5C0.071
T6C0.118
T7C0.118
%
G90
G05
M72
T1
X2.285Y-2.105
X2.315Y-1.825
X2.63Y-2.295
X2.76Y-1.9375
X2.815Y-1.925
X2.815Y-2.05
X2.845Y-2.275
X2.875Y-2.63
X2.89Y-2.665
X2.905Y-2.05
X2.94Y-2.22
X2.9425Y-2.2575
X3.Y-2.6
X3.035Y-1.8
X3.05Y-2.45
X3.125Y-2.275
X3.14Y-2.045
X3.2425Y-2.585
T2
X1.2882Y-2.0154
X1.2882Y-2.1154
X1.2882Y-2.2154
X1.2882Y-2.3154
X2.725Y-1.325
X2.825Y-1.325
X2.85Y-3.
X2.925Y-1.325
X2.95Y-3.
X3.05Y-3.
X3.075Y-1.325
X3.175Y-1.325
X3.2Y-3.
X3.275Y-1.325
X3.3Y-3.
X3.425Y-1.325
X3.45Y-3.
X3.525Y-1.325
X3.55Y-3.
X3.625Y-1.325
X3.65Y-3.
X4.4882Y-1.5154
X4.4882Y-1.6154
X4.4882Y-1.7154
X4.4882Y-1.8154
X4.4882Y-1.9154
X4.4882Y-2.0154
X4.4882Y-2.1154
X4.4882Y-2.2154
X4.4882Y-2.3154
X4.4882Y-2.4154
X4.4882Y-2.5154
X4.4882Y-2.6154
X4.4882Y-2.7154
X4.4882Y-2.8154
T3
X1.5375Y-2.0125
X1.5375Y-2.1125
X1.5375Y-2.2125
X1.5375Y-2.3125
X1.6375Y-2.0125
X1.6375Y-2.1125
X1.6375Y-2.2125
X1.6375Y-2.3125
X1.7Y-1.325
X1.7Y-1.425
X1.7Y-2.9
X1.7Y-3.
X1.8Y-1.325
X1.8Y-1.425
X1.8Y-2.9
X1.8Y-3.
X1.9Y-1.325
X1.9Y-1.425
X1.9Y-2.9
X1.9Y-3.
X2.Y-1.325
X2.Y-1.425
X2.Y-2.9
X2.Y-3.
X2.1Y-1.325
X2.1Y-1.425
X2.1Y-2.9
X2.1Y-3.
X2.125Y-1.925
X2.125Y-2.025
X2.125Y-2.125
X2.125Y-2.225
X2.125Y-2.325
X2.2Y-1.325
X2.2Y-1.425
X2.2Y-1.65
X2.2Y-2.9
X2.2Y-3.
X2.225Y-1.925
X2.225Y-2.025
X2.225Y-2.125
X2.225Y-2.225
X2.225Y-2.325
X2.3Y-1.325
X2.3Y-1.425
X2.3Y-1.65
X2.3Y-2.9
X2.3Y-3.
X2.4Y-1.325
X2.4Y-1.425
X2.4Y-1.65
X2.4Y-2.9
X2.4Y-3.
X2.85Y-2.75
X2.95Y-2.75
X3.05Y-2.75
X3.675Y-2.625
X3.775Y-2.625
X3.875Y-2.625
X3.975Y-2.625
X4.075Y-2.625
X4.75Y-2.225
X4.75Y-2.325
X4.75Y-2.425
X4.8Y-1.425
X4.8Y-1.525
X4.8Y-1.625
X4.8Y-1.725
T4
X5.4528Y-1.8898
X5.4528Y-2.4606
X5.5512Y-2.4606
X5.6496Y-1.8898
X5.6496Y-2.4606
T6
X5.7874Y-1.2992
X5.7874Y-3.0315
T7
X1.2992Y-1.2992
X1.2992Y-3.0315
X4.2945Y-1.2992
X4.2945Y-3.0315
T5
X5.3701Y-2.1496G85X5.3701Y-2.1811
G05
X5.7323Y-2.1496G85X5.7323Y-2.1811
G05
T0
M30
